<svg width="20" height="18" viewBox="0 0 20 18" fill="none" xmlns="http://www.w3.org/2000/svg">
<path d="M17.2139 5.98682H17.9305C19.0716 5.98682 20 6.87665 20 7.97047C20 9.06691 19.0716 9.95678 17.9304 9.95678H17.2138V15.5539C17.2138 15.7066 17.1208 15.8452 16.9758 15.9085C16.9219 15.932 16.8645 15.9435 16.8074 15.9435C16.7112 15.9435 16.616 15.9108 16.5406 15.8478L15.4641 14.9501C14.9023 14.4817 14.2952 14.0481 13.6596 13.6615C12.1491 12.7427 10.4917 12.095 8.76114 11.739V12.5588V15.3596V16.6026C8.76114 17.3731 8.10707 18 7.30316 18H4.97158C4.74712 18 4.56509 17.8255 4.56509 17.6104V11.4176H3.61669C1.62244 11.4176 0 9.87181 0 7.97176C0 6.07171 1.62248 4.5259 3.61669 4.5259H5.59606C8.45811 4.5259 11.2465 3.74999 13.6596 2.28202C14.2951 1.89549 14.9023 1.46193 15.4641 0.993386L16.5406 0.0957251C16.6608 -0.00452143 16.8309 -0.0282487 16.9759 0.0350629C17.1208 0.0983355 17.2139 0.236959 17.2139 0.389647V5.98682Z" fill="#8D96A4"/>
</svg>
