<svg width="24" height="24" viewBox="0 0 24 24" fill="none" xmlns="http://www.w3.org/2000/svg">
<path fill-rule="evenodd" clip-rule="evenodd" d="M0 12C0 5.38322 5.38322 0 12 0C18.6168 0 24 5.38322 24 12C24 18.6168 18.6168 24 12 24C5.38322 24 0 18.6168 0 12ZM11.5976 0.982407L10.0019 1.09763C10.1564 3.241 9.48508 5.35488 8.13968 7.02966L4.77838 3.67406L3.64799 4.80637L7.02977 8.18241C5.35499 9.63719 3.20239 10.3553 0.902109 10.2147L0.804234 11.8118C1.02876 11.8257 1.25142 11.8323 1.47328 11.8323C3.98924 11.8323 6.32559 10.9531 8.16485 9.31557L10.8408 11.987L3.64798 19.1677L4.77836 20.3L11.9731 13.1174L14.0129 15.1537C12.1245 17.3064 11.2411 20.1293 11.5789 23.0002L13.1677 22.8133C12.8874 20.4318 13.6057 18.0892 15.1479 16.2868L19.1682 20.3002L20.2986 19.1679L16.2967 15.1728C18.1562 13.6812 20.5781 13.0243 22.9397 13.4031L23.1933 11.8234C20.3249 11.363 17.3854 12.1859 15.1588 14.0368L13.1055 11.987L20.2986 4.80611L19.1682 3.67381L11.9731 10.8566L9.27781 8.16586C10.947 6.15947 11.7858 3.59 11.5976 0.982407Z" fill="#8D96A4"/>
</svg>
