<svg width="31" height="16" viewBox="0 0 31 16" fill="none" xmlns="http://www.w3.org/2000/svg">
<path d="M25.329 10.5054C26.7052 10.5054 27.8208 11.621 27.8208 12.9972C27.8208 14.3734 26.7052 15.4891 25.329 15.4891C23.9534 15.4875 22.8386 14.3728 22.8371 12.9972C22.8371 11.621 23.9527 10.5054 25.329 10.5054Z" fill="#8D96A4"/>
<path d="M1.98472 7.30593L4.76211 6.03817C4.85676 5.99616 4.93688 5.927 4.99237 5.83951L7.39912 2.00305C7.84735 1.28746 8.63489 0.855892 9.47924 0.863127H19.2596C20.0232 0.860804 20.7443 1.21412 21.2104 1.81892L24.3055 5.87376C24.3748 5.96642 24.4728 6.03346 24.5843 6.06426L29.7572 7.47977C30.4959 7.68546 31.0051 8.36063 31 9.12746V11.0191C31 11.9609 30.2639 12.7441 29.3221 12.7441H28.8715C28.7386 10.9941 27.3478 9.60323 25.5978 9.47042C23.6413 9.32194 21.9349 10.7876 21.7864 12.7441H10.5852C10.4524 10.9941 9.06161 9.6033 7.31157 9.47042C5.35511 9.32194 3.64867 10.7876 3.50019 12.7441H2.67642C1.73456 12.7441 0.998526 11.9609 0.998526 11.0191V8.8597C0.993216 8.1929 1.37912 7.58491 1.98472 7.30593Z" fill="#8D96A4"/>
<path d="M7.04282 10.5054C8.41904 10.5054 9.53467 11.621 9.53467 12.9972C9.53467 14.3734 8.41904 15.4891 7.04289 15.4891C5.66734 15.4875 4.55257 14.3728 4.55098 12.9972C4.55098 11.621 5.66667 10.5054 7.04282 10.5054Z" fill="#8D96A4"/>
</svg>
