<svg width="27" height="19" viewBox="0 0 27 19" fill="none" xmlns="http://www.w3.org/2000/svg">
<path d="M0.888672 14.1867C0.888672 11.0437 3.43657 8.49576 6.57957 8.49576C9.72256 8.49576 12.2705 11.0437 12.2705 14.1867V16.53H0.888672V14.1867Z" fill="#8D96A4"/>
<circle cx="6.57981" cy="4.14377" r="3.68234" fill="#8D96A4"/>
<path d="M15.6182 14.1867C15.6182 11.0437 18.1661 8.49576 21.3091 8.49576C24.4521 8.49576 27 11.0437 27 14.1867V16.53H15.6182V14.1867Z" fill="#8D96A4"/>
<circle cx="21.3093" cy="4.14377" r="3.68234" fill="#8D96A4"/>
<path d="M8.25342 16.1952C8.25342 13.0522 10.8013 10.5043 13.9443 10.5043C17.0873 10.5043 19.6352 13.0522 19.6352 16.1952V18.5385H8.25342V16.1952Z" fill="#8D96A4"/>
<circle cx="13.9441" cy="6.15235" r="3.68234" fill="#8D96A4"/>
</svg>
