<svg width="22" height="19" viewBox="0 0 22 19" fill="none" xmlns="http://www.w3.org/2000/svg">
<path d="M20.3563 1.91289C19.2393 0.679333 17.691 0 15.9965 0C14.1051 0 12.4656 0.87881 11.2552 2.54134C11.1645 2.66599 11.0796 2.79064 11 2.91404C10.9205 2.79058 10.8356 2.66599 10.7448 2.54134C9.53436 0.87881 7.89487 0 6.0035 0C4.30901 0 2.76064 0.679333 1.64372 1.91282C0.58381 3.08342 0 4.64836 0 6.31934C0 8.13523 0.717105 9.81083 2.25654 11.5927C3.59976 13.1474 5.52646 14.7454 7.75748 16.5958C8.58189 17.2796 9.43444 17.9866 10.3404 18.7582C10.5296 18.9194 10.7648 19 10.9999 19C11.235 19 11.4702 18.9194 11.6595 18.7582C12.5653 17.9868 13.4177 17.2798 14.2421 16.5961C15.6749 15.4077 16.9123 14.3814 17.9861 13.3859C20.0709 11.453 22 9.25918 22 6.31941C22 4.64836 21.4163 3.08349 20.3563 1.91289Z" fill="#8D96A4"/>
</svg>
