<svg width="25" height="22" viewBox="0 0 25 22" fill="none" xmlns="http://www.w3.org/2000/svg">
<path d="M24.6868 12.1976C25.14 11.6828 25.0962 10.8937 24.5891 10.4356L13.4163 0.337365C12.9091 -0.120727 12.0961 -0.111131 11.5996 0.358998L0.388821 10.974C-0.107637 11.4441 -0.132003 12.2322 0.334872 12.7335L0.615943 13.0358C1.08225 13.5371 1.83598 13.5969 2.29837 13.1689L3.1362 12.3939V20.7403C3.1362 21.4364 3.68229 22 4.35575 22H8.72575C9.39921 22 9.9453 21.4364 9.9453 20.7403V15.8024H15.5193V20.7403C15.5096 21.4359 15.9914 21.9995 16.6649 21.9995H21.296C21.9695 21.9995 22.5156 21.4359 22.5156 20.7398V12.5537C22.5156 12.5537 22.747 12.7631 23.0325 13.0223C23.3175 13.2809 23.916 13.0735 24.3692 12.5582L24.6868 12.1976Z" fill="#8D96A4"/>
</svg>
