<svg width="26" height="24" viewBox="0 0 26 24" fill="none" xmlns="http://www.w3.org/2000/svg">
<path d="M8.2239 18.8512C6.80202 18.8512 5.64941 20.0039 5.64941 21.4257C5.64941 22.8476 6.80207 24.0002 8.2239 24.0002C9.64577 24.0002 10.7984 22.8475 10.7984 21.4257C10.7984 20.0039 9.64577 18.8512 8.2239 18.8512Z" fill="#8D96A4"/>
<path d="M19.094 18.8512C17.6721 18.8512 16.5195 20.0039 16.5195 21.4257C16.5195 22.8476 17.6722 24.0002 19.094 24.0002C20.5158 24.0002 21.6685 22.8475 21.6685 21.4257C21.6685 20.0039 20.5159 18.8512 19.094 18.8512Z" fill="#8D96A4"/>
<path d="M24.901 3.8332C24.7819 3.70305 24.6189 3.62158 24.4433 3.60433L5.82111 3.34688L5.30621 1.77356C4.94347 0.721807 3.95858 0.0117719 2.84611 0H0.929535C0.613556 0 0.357422 0.256134 0.357422 0.572113C0.357422 0.888092 0.613556 1.14423 0.929535 1.14423H2.84611C3.46815 1.15797 4.0159 1.55739 4.2192 2.14544L7.85211 13.1014L7.56608 13.7593C7.24704 14.582 7.34285 15.508 7.82353 16.248C8.2996 16.9748 9.10053 17.4233 9.96897 17.4494H21.0966C21.4125 17.4494 21.6687 17.1933 21.6687 16.8773C21.6687 16.5613 21.4125 16.3052 21.0966 16.3052H9.96891C9.47849 16.2929 9.02705 16.0349 8.76747 15.6186C8.51079 15.2075 8.45806 14.7009 8.62445 14.2456L8.85332 13.7307L20.8963 12.472C22.2191 12.3263 23.3073 11.3642 23.6138 10.0691L24.9869 4.3194C25.0488 4.15383 25.0159 3.96761 24.901 3.8332Z" fill="#8D96A4"/>
</svg>
