<svg width="19" height="22" viewBox="0 0 19 22" fill="none" xmlns="http://www.w3.org/2000/svg">
<path d="M9.97841 11.8918C11.5637 11.8918 12.8489 10.6066 12.8489 9.02126C12.8489 7.43592 11.5637 6.15076 9.97841 6.15076C8.39308 6.15076 7.10791 7.43592 7.10791 9.02126C7.10791 10.6066 8.39308 11.8918 9.97841 11.8918Z" fill="#8D96A4"/>
<path d="M16.3575 15.4003C18.0615 13.6964 18.9999 11.4309 18.9999 9.02115C18.9999 4.04677 14.9529 -0.000244141 9.97843 -0.000244141C5.00405 -0.000244141 0.957031 4.04677 0.957031 9.02115C0.957031 11.4309 1.89539 13.6964 3.59938 15.4003L9.97843 21.7793L16.3575 15.4003ZM4.64763 9.02131C4.64763 6.08192 7.03903 3.69052 9.97843 3.69052C12.9178 3.69052 15.3092 6.08192 15.3092 9.02131C15.3092 11.9607 12.9178 14.3521 9.97843 14.3521C7.03903 14.3521 4.64763 11.9607 4.64763 9.02131Z" fill="#8D96A4"/>
</svg>
