<svg width="20" height="24" viewBox="0 0 20 24" fill="none" xmlns="http://www.w3.org/2000/svg">
<path fill-rule="evenodd" clip-rule="evenodd" d="M9.54068 22.9401C9.64256 22.9845 9.75102 23.0058 9.85947 23.0058C9.96793 23.0058 10.0764 22.9845 10.1783 22.9418C10.5694 22.7774 19.7189 18.8221 19.7189 10.7407V3.87354C19.7189 3.52024 19.4938 3.20638 19.1602 3.09464L10.1224 0.0431352C9.95314 -0.0143784 9.76745 -0.0143784 9.59655 0.0431352L0.558704 3.09464C0.225125 3.20803 0 3.52189 0 3.87354V10.7407C0 18.8221 9.14959 22.7774 9.54068 22.9401ZM9.03784 14.7898H9.03787C9.25478 14.7898 9.46512 14.7043 9.61794 14.5482L15.3693 8.79687C15.6897 8.47644 15.6897 7.95553 15.3693 7.6351C15.0489 7.31467 14.528 7.31467 14.2075 7.6351L9.10524 12.7374L6.39389 9.34572C6.11125 8.99406 5.59527 8.93491 5.23869 9.21755C4.88375 9.50183 4.82788 10.0178 5.11051 10.3727L8.39701 14.4809C8.54325 14.6633 8.75852 14.775 8.9935 14.7881C9.00664 14.7898 9.02306 14.7898 9.03784 14.7898Z" fill="#8D96A4"/>
</svg>
