<svg width="26" height="19" viewBox="0 0 26 19" fill="none" xmlns="http://www.w3.org/2000/svg">
<path d="M5.6453 6.88242C5.92665 7.29953 6.1529 7.75124 6.31846 8.22638C6.77305 9.49086 6.90978 10.9962 6.9441 12.0427H18.9867C19.0217 10.9968 19.1583 9.49024 19.6129 8.22576C19.778 7.75124 20.0038 7.30009 20.2849 6.88361C20.6526 6.35648 21.11 5.89794 21.6361 5.52881C21.826 5.39051 22.0236 5.26304 22.2279 5.14704C20.8449 2.07075 17.2116 0 12.9654 0C8.94191 0 5.39297 2.13578 3.95508 5.29878C4.07187 5.37403 4.18449 5.45114 4.29406 5.52881C4.81944 5.89839 5.27663 6.35642 5.6453 6.88242Z" fill="#8D96A4"/>
<path d="M25.162 6.44659C24.8573 6.14131 24.481 6.05759 24.2558 6.00764C23.9459 5.93871 23.6246 5.93871 23.3147 6.00764C22.9209 6.09615 22.6722 6.27137 22.3272 6.51461C21.9176 6.80183 21.5614 7.15842 21.2747 7.56836C21.0545 7.89995 20.8767 8.25778 20.7454 8.63351C20.2511 9.99554 20.1788 11.7321 20.1782 12.6449C20.1782 12.9774 19.9086 13.247 19.5761 13.247H6.35325C6.02071 13.247 5.7511 12.9774 5.7511 12.6449C5.7511 11.7315 5.67523 9.99554 5.1857 8.63351C5.05395 8.25744 4.87596 7.89927 4.65581 7.56712C4.36848 7.15729 4.01188 6.8007 3.60206 6.51337C3.25704 6.2725 3.00775 6.09186 2.61334 6.00577C2.30388 5.93623 1.98285 5.93623 1.67339 6.00577C1.44759 6.05573 1.07124 6.14007 0.76596 6.44535C0.761162 6.45077 0.224042 7.00776 0.334232 7.73449C0.45464 8.51186 1.19707 8.94359 1.66854 9.04351C1.83992 9.07958 2.01734 9.07563 2.18697 9.03205C2.39172 8.99293 2.67289 8.93874 2.992 9.08325C3.99698 9.53728 4.10655 11.2593 3.36531 15.0148C3.74403 16.1276 4.22092 16.2137 4.5822 16.2558H5.75031V18.0622C5.75031 18.3948 6.01992 18.6644 6.35246 18.6644H6.95461C7.28716 18.6644 7.55676 18.3948 7.55676 18.0622V16.2576H18.3746V18.064C18.3746 18.3966 18.6442 18.6662 18.9768 18.6662H19.5789C19.9115 18.6662 20.1811 18.3966 20.1811 18.064V16.2576H21.3492C21.7105 16.2161 22.1874 16.1294 22.5661 15.0166C21.8249 11.2618 21.9345 9.53722 22.9394 9.08506C23.2585 8.94054 23.5416 8.99411 23.7451 9.03386C23.915 9.07648 24.0924 9.0802 24.2641 9.04469C24.7356 8.94472 25.4792 8.51299 25.5984 7.73624C25.7063 7.00956 25.1674 6.45263 25.162 6.44659Z" fill="#8D96A4"/>
</svg>
