<svg width="31" height="27" viewBox="0 0 31 27" fill="none" xmlns="http://www.w3.org/2000/svg">
<path d="M14.6685 3.02367V3.68101C15.5807 3.61924 16.0691 3.69322 16.1198 3.70152C16.4135 3.74946 16.6642 3.93915 16.7905 4.20836L18.0725 6.94052C18.2276 6.9767 18.3753 7.05322 18.4975 7.17238C18.6521 7.32312 18.8372 7.44113 19.047 7.4923C19.4658 7.5944 19.8813 7.47801 20.175 7.19244C20.478 6.89788 20.9404 6.82297 21.2976 7.04884C21.8084 7.37152 21.8633 8.05514 21.4627 8.45572C20.8975 9.0211 20.1459 9.33248 19.3464 9.33248C19.295 9.33248 19.2438 9.3311 19.1926 9.32856L20.916 13.0018C20.9888 13.1567 21.0577 13.3127 21.1232 13.4694C23.0636 12.8575 25.2707 13.312 26.8129 14.8367C27.1577 15.1773 27.196 15.7337 26.8737 16.096C26.6937 16.2984 26.4462 16.3996 26.1987 16.3996C25.9679 16.3996 25.737 16.3115 25.5611 16.1355C24.5159 15.0904 23.0152 14.7726 21.6922 15.1803C22.194 17.1809 22.1606 19.2456 21.6427 21.1817C21.8865 21.2623 22.1348 21.3343 22.3869 21.3969C22.6796 21.4695 22.9855 21.4702 23.2784 21.3979C27.7883 20.2823 30.9999 16.2265 30.9999 11.5276V3.02367C30.9999 2.60257 30.7399 2.22504 30.3458 2.07684C29.1037 1.61011 26.7032 0.975586 22.8345 0.975586C18.9656 0.975586 16.5649 1.61034 15.3226 2.07707C14.9284 2.22504 14.6685 2.60257 14.6685 3.02367ZM24.6385 7.18045C24.9907 6.82827 25.5616 6.82827 25.914 7.18045C26.1385 7.40494 26.437 7.52871 26.7546 7.52871C27.0722 7.52871 27.3709 7.40494 27.5954 7.18045C27.9476 6.82804 28.5187 6.82804 28.8709 7.18045C29.2231 7.53263 29.2231 8.10354 28.8709 8.45572C28.3055 9.0211 27.5541 9.33248 26.7546 9.33248C25.9553 9.33248 25.2037 9.0211 24.6383 8.45572C24.2863 8.10354 24.2863 7.53263 24.6385 7.18045Z" fill="#8D96A4"/>
<path d="M19.2833 13.7681L15.6521 6.02841C15.485 5.67208 15.1148 5.4575 14.7223 5.48723C13.4111 5.58634 10.9516 6.02127 7.40903 7.68329C3.90636 9.32664 2.00256 10.9209 1.07625 11.871C0.782379 12.1724 0.707241 12.6246 0.886097 13.0059L4.49801 20.7047C6.49378 24.9585 11.1244 27.2664 15.6813 26.3606C15.9759 26.302 16.2516 26.1727 16.4848 25.9835C20.0942 23.0582 21.2791 18.0221 19.2833 13.7681ZM11.9858 13.1912C12.5465 11.6391 14.2655 10.8324 15.8176 11.3934C16.2859 11.5626 16.5284 12.0795 16.3592 12.5481C16.19 13.0165 15.673 13.2592 15.2045 13.0898C14.5879 12.8671 13.905 13.1875 13.6821 13.804C13.5494 14.1714 13.2032 14.3998 12.8339 14.3998C12.7321 14.3998 12.6286 14.3825 12.5274 14.3459C12.059 14.1765 11.8163 13.6595 11.9858 13.1912ZM8.49784 16.2363C8.19913 16.1285 7.87622 16.1432 7.58858 16.2783C7.30116 16.4131 7.08335 16.6519 6.97549 16.9506C6.84273 17.318 6.49631 17.5464 6.12708 17.5464C6.02543 17.5464 5.92195 17.5289 5.82076 17.4925C5.35219 17.3233 5.10972 16.8063 5.27889 16.3377C5.55064 15.5859 6.09873 14.9848 6.82245 14.6453C7.5464 14.3058 8.35885 14.2682 9.11069 14.54C9.57927 14.7091 9.82174 15.2261 9.65256 15.6947C9.48316 16.163 8.96618 16.4055 8.49784 16.2363ZM11.5262 22.1316C10.8889 22.1316 10.2414 22.0233 9.60831 21.7944C9.13974 21.6253 8.89727 21.1083 9.06644 20.6397C9.23585 20.1714 9.75259 19.9287 10.2212 20.0981C12.2211 20.8207 14.436 19.7814 15.1586 17.7817C15.3278 17.3131 15.8447 17.0707 16.3133 17.2399C16.7817 17.4093 17.0241 17.9262 16.855 18.3948C16.0231 20.6967 13.8437 22.1316 11.5262 22.1316Z" fill="#8D96A4"/>
</svg>
