<svg width="24" height="18" viewBox="0 0 24 18" fill="none" xmlns="http://www.w3.org/2000/svg">
<path d="M23.5491 5.1515L12.2982 0.0645287C12.108 -0.0215096 11.892 -0.0215096 11.7018 0.0645287L0.45093 5.1515C-0.15024 5.42331 -0.15038 6.31582 0.45093 6.58763L4.49945 8.41811V13.3043C4.49945 15.9374 7.79407 18 12 18C16.2059 18 19.5006 15.9374 19.5006 13.3043V8.41811L20.2506 8.079V16.4348C20.2506 16.867 20.5865 17.2174 21.0007 17.2174C21.4149 17.2174 21.7507 16.867 21.7507 16.4348V7.40077L23.5491 6.58768C24.1503 6.31587 24.1504 5.42335 23.5491 5.1515Z" fill="#8D96A4"/>
</svg>
