<svg width="19" height="24" viewBox="0 0 19 24" fill="none" xmlns="http://www.w3.org/2000/svg">
<path d="M17.5551 3.49823H16.8683V1.806C16.8683 0.810188 16.1031 0 15.1625 0H1.70582C0.765245 0 0 0.810188 0 1.806V6.31327C0 7.30908 0.765245 8.11927 1.70582 8.11927H15.1625C16.1031 8.11927 16.8683 7.30908 16.8683 6.31327V4.43573H17.5551C17.8636 4.43573 18.1145 4.70062 18.1145 5.02631V9.75516C18.1145 10.0808 17.8636 10.3457 17.5551 10.3457H8.43417C8.18969 10.3457 7.99142 10.5556 7.99142 10.8144V13.293H6.75629C6.5118 13.293 6.31354 13.5029 6.31354 13.7617V22.5315C6.31354 23.3412 6.93578 24 7.70054 24H9.16772C9.93248 24 10.5547 23.3412 10.5547 22.5315V13.7617C10.5547 13.5029 10.3564 13.293 10.112 13.293H8.87687V11.2832H17.555C18.3518 11.2832 19 10.5977 19 9.75516V5.02631C19 4.18373 18.3518 3.49823 17.5551 3.49823Z" fill="#8D96A4"/>
</svg>
