<svg width="104" height="20" viewBox="0 0 104 20" fill="none" xmlns="http://www.w3.org/2000/svg">
<path fill-rule="evenodd" clip-rule="evenodd" d="M40.5364 9.47496C39.7145 9.47496 39.0474 10.1415 39.0474 10.9627C39.0474 11.7858 39.7145 12.4517 40.5364 12.4517C41.3588 12.4517 42.0251 11.7858 42.0251 10.9627C42.0251 10.1415 41.3588 9.47496 40.5364 9.47496ZM101.119 8.38247C102.096 8.38247 102.81 8.92886 103.278 9.47496V6.83671C102.511 6.31675 101.587 6.10858 100.783 6.10858C98.3153 6.10858 96.1709 7.87573 96.1709 10.9159C96.1709 13.8269 98.1198 15.7244 100.822 15.7244C101.601 15.7244 102.459 15.6063 103.278 15.0485V12.461C102.81 12.9429 102.07 13.4502 101.119 13.4502C99.6653 13.4502 98.7942 12.3721 98.7942 10.994C98.7942 9.49959 99.7169 8.38247 101.119 8.38247ZM96.45 6.36901H93.4615L90.7193 10.1884V6.36901H88.1733L88.1742 15.4643H90.7193V11.5524L93.3561 15.4643H96.5413L92.9935 10.7732L96.45 6.36901ZM80.6535 11.8263V6.36901H78.1979V15.4643H80.6926L84.2139 10.0066V15.4643H86.6696V6.36901H84.1743L80.6535 11.8263ZM73.2743 10.4611H72.548V8.37015H73.2743C74.3659 8.37015 74.5212 8.9541 74.5212 9.40917C74.5212 9.79877 74.4047 10.4611 73.2743 10.4611ZM73.8325 6.36901H70.0002V15.4643H72.548V12.461H73.8325C76.4058 12.461 77.1466 10.6702 77.1466 9.40917C77.1466 8.16139 76.4187 6.36901 73.8325 6.36901ZM62.4132 8.55098H64.4128V15.4643H66.9603V8.55098H68.9606V6.36901H62.4132V8.55098ZM55.3569 11.8263V6.36901H52.9019V15.4643H55.3971L58.9167 10.0066V15.4643H61.3729V6.36901H58.8789L55.3569 11.8263ZM47.7696 13.644H46.6786V11.7347H47.7696C48.5755 11.7347 49.0435 11.969 49.0435 12.6842C49.0435 13.4112 48.5629 13.644 47.7696 13.644ZM48.0171 9.91562H46.6786V8.55098H50.8491V6.36901H44.1322L44.1319 15.4643L48.0171 15.4643C48.6788 15.4643 51.5898 15.4895 51.5898 12.6449C51.5898 9.9027 48.7055 9.91562 48.0171 9.91562ZM29.8791 10.9159C29.8791 13.8269 31.828 15.7244 34.5302 15.7244C35.3106 15.7244 36.1679 15.6063 36.9868 15.0485V12.461C36.5176 12.9429 35.7771 13.4502 34.8291 13.4502C33.3735 13.4502 32.5036 12.3721 32.5036 10.994C32.5036 9.49959 33.4257 8.38247 34.8291 8.38247C35.8033 8.38247 36.5176 8.92886 36.9868 9.47496V6.83671C36.2184 6.31675 35.2968 6.10858 34.4912 6.10858C32.0224 6.10858 29.8791 7.87573 29.8791 10.9159ZM24.5474 8.46057H25.9384V15.4643H28.2904V6.36901H24.5474V8.46057Z" fill="#231F20"/>
<path fill-rule="evenodd" clip-rule="evenodd" d="M9.9994 0C9.25445 0 8.52993 0.0838064 7.83185 0.238803V10.0069C7.83185 11.2039 8.80779 12.1802 10.0051 12.1802C11.2018 12.1802 12.1775 11.2039 12.1775 10.0075C12.1775 8.85765 11.279 7.91385 10.1496 7.83876V6.09925C12.2366 6.17494 13.9161 7.90154 13.9161 10.0075C13.9161 12.1612 12.1591 13.9191 10.0051 13.9191C7.85017 13.9191 6.09354 12.1612 6.09354 10.0069V0.791505C5.84662 0.896338 5.60542 1.01259 5.36902 1.13754V10.0069C5.36932 12.5599 7.45216 14.6418 10.0051 14.6418C12.5583 14.6418 14.6403 12.5599 14.6403 10.0075C14.6403 7.50263 12.6367 5.45132 10.1496 5.37413V3.63522C13.5938 3.71302 16.378 6.54561 16.378 10.0075C16.378 13.5184 13.5151 16.3807 10.0051 16.3807C6.49425 16.3807 3.63041 13.5184 3.63041 10.0069V2.29101C1.4136 4.12424 0 6.89646 0 9.9994C0 15.5219 4.47689 20 9.9997 20C15.5234 20 19.9991 15.5219 19.9991 9.9994C19.9991 4.47689 15.5234 0 9.9994 0Z" fill="#D91935"/>
</svg>
