<svg width="114" height="21" viewBox="0 0 114 21" fill="none" xmlns="http://www.w3.org/2000/svg">
<path d="M76.8115 15.7246H87.0144V13.4638H80.2898C81.2173 9.75362 86.8985 8.94203 86.8985 4.82609C86.8985 2.62319 85.3912 1 82.2028 1C80.2318 1 78.4927 1.57971 77.3333 2.15942L78.0289 4.24638C79.0724 3.72464 80.2898 3.26087 81.797 3.26087C82.9564 3.26087 84.0579 3.78261 84.0579 5.11594C84.0579 8.13043 77.3912 8.36232 76.8115 15.7246ZM87.3043 12.1304H93.855V15.7246H96.4637V12.1304H98.6666V9.92753H96.4637V1H94.5506L87.3043 10.3913V12.1304ZM90.2608 10.0435L93.9709 5.05797C93.9709 5.46377 93.855 6.73913 93.855 7.89855V9.98551H92.1159C91.5941 9.98551 90.6086 10.0435 90.2608 10.0435Z" fill="#005893"/>
<path d="M2.72464 13.5217V8.94204H3.82609C4.81159 8.94204 5.62319 9.05798 6.2029 9.40581C6.78261 9.75363 7.13043 10.3333 7.13043 11.2609C7.13043 12.8261 6.2029 13.5217 4 13.5217H2.72464ZM0.057971 15.7246H3.94203C8.28985 15.7246 9.85507 13.8116 9.85507 11.1449C9.85507 9.34784 9.10145 8.13045 7.76811 7.43479C6.72464 6.85508 5.3913 6.68117 3.76812 6.68117H2.72464V3.20291H8.57971L9.27536 1.05798H0V15.7246H0.057971ZM11.6522 15.7246H14.2029L17.5072 10.971C18.1449 10.1015 18.6087 9.23189 18.8985 8.76813H18.9565C18.8985 9.40581 18.8406 10.2174 18.8406 11.029V15.6667H21.4493V5.2319H18.8985L15.5942 9.98552C15.0145 10.8551 14.4928 11.7246 14.2029 12.1884H14.1449C14.2029 11.5507 14.2609 10.7391 14.2609 9.92755V5.28987H11.6522V15.7246ZM25.913 15.7246H28.5797V7.43479H31.7101L32.4058 5.2319H22.7246V7.43479H25.913V15.7246ZM33.3333 21H35.942V15.7246C36.4638 15.8986 36.9855 15.9565 37.5652 15.9565C40.8696 15.9565 43.0145 13.6957 43.0145 10.4493C43.0145 7.08697 41.0435 4.94204 37.2754 4.94204C35.8261 4.94204 34.4348 5.2319 33.2754 5.57972V21H33.3333ZM35.942 13.4638V7.31885C36.3478 7.20291 36.6956 7.14494 37.1594 7.14494C39.0725 7.14494 40.2898 8.18842 40.2898 10.4493C40.2898 12.4783 39.3043 13.7536 37.3333 13.7536C36.8116 13.7536 36.4058 13.6377 35.942 13.4638ZM44.5797 15.7246H47.1304L50.4348 10.971C51.0725 10.1015 51.5362 9.23189 51.8261 8.76813H51.884C51.8261 9.40581 51.7681 10.2174 51.7681 11.029V15.6667H54.3768V5.2319H51.8261L48.5217 9.98552C47.942 10.8551 47.4203 11.7246 47.1304 12.1884H47.0725C47.1304 11.5507 47.1884 10.7391 47.1884 9.92755V5.28987H44.5797V15.7246ZM56.4638 15.7246H59.1304V11.3768H60.6956C60.9855 11.3768 61.2753 11.6667 61.6232 12.3623L62.9565 15.7246H65.7971L63.884 11.7246C63.5362 11.029 63.1884 10.6232 62.6667 10.4493V10.3913C63.5362 9.86958 63.6522 8.36233 64.1739 7.60871C64.3478 7.37682 64.5797 7.26088 64.9275 7.26088C65.1014 7.26088 65.3333 7.26088 65.5072 7.37682V5.11595C65.2174 5.00001 64.6956 4.94204 64.4058 4.94204C63.4782 4.94204 62.8985 5.28987 62.4927 5.86958C61.6232 7.14494 61.6232 9.34784 60.3478 9.34784H59.1304V5.2319H56.4638V15.7246ZM71.7101 15.9565C73.1594 15.9565 74.4927 15.4928 75.3043 14.9131L74.5507 13.116C73.7971 13.5217 73.1014 13.8116 72.1159 13.8116C70.3188 13.8116 69.1594 12.6522 69.1594 10.5073C69.1594 8.59421 70.3188 7.08697 72.2898 7.08697C73.3333 7.08697 74.0869 7.37682 74.8406 7.89856V5.63769C74.2609 5.28987 73.3333 4.94204 72 4.94204C68.8695 4.94204 66.4348 7.26088 66.4348 10.5652C66.4348 13.5797 68.2898 15.9565 71.7101 15.9565Z" fill="#0BBBEF"/>
<path d="M107.304 12.1304C110.145 12.1304 112.464 9.81158 112.464 6.971C112.464 4.13042 110.145 1.81158 107.304 1.81158C104.464 1.81158 102.145 4.13042 102.145 6.971C102.203 9.81158 104.464 12.1304 107.304 12.1304Z" stroke="#005893" stroke-width="1.7688"/>
<path d="M110.551 6.97101H107.71V4.13043H106.957V7.72463H110.551V6.97101Z" fill="#005893"/>
</svg>
