<svg width="82" height="20" viewBox="0 0 82 20" fill="none" xmlns="http://www.w3.org/2000/svg">
<path fill-rule="evenodd" clip-rule="evenodd" d="M2.24295 17.7489C3.67722 19.1834 5.62198 19.9904 7.65054 19.9929C9.6792 19.9905 11.6241 19.1836 13.0585 17.749C14.4929 16.3145 15.2996 14.3695 15.3017 12.3408C15.3017 8.7569 12.9098 6.36696 10.7993 4.25838L10.7963 4.2554C9.39035 2.85036 8.04995 1.51083 7.65054 0C7.25164 1.51003 5.91215 2.84895 4.50732 4.25318L4.50212 4.25838L4.50058 4.25991C2.39102 6.36813 0 8.75762 0 12.3408C0.00203164 14.3694 0.808673 16.3143 2.24295 17.7489ZM7.65101 4.40166C7.65101 4.40166 6.59874 5.45333 6.238 5.81467L6.20039 5.85208C5.90126 6.14873 5.36115 6.68436 6.05223 7.43114C6.23604 7.62976 6.59901 8.01416 7.05722 8.49941C8.64251 10.1783 11.3678 13.0644 11.7573 13.6411C11.7973 13.7003 11.8313 13.754 11.8619 13.8023C12.006 14.0299 12.0733 14.1362 12.3287 14.1269C12.5022 14.1205 12.631 13.9135 12.6877 13.7894C12.9534 13.2086 13.4038 11.4482 12.0965 9.41358C10.7893 7.37915 7.65101 4.40166 7.65101 4.40166ZM4.26342 7.9461L6.38894 10.2677C6.40716 10.2858 6.42136 10.3075 6.4306 10.3314C6.43985 10.3553 6.44392 10.3809 6.44256 10.4065C6.44121 10.4321 6.43445 10.4572 6.42272 10.48C6.411 10.5028 6.39459 10.5229 6.37456 10.5389C6.33744 10.577 6.29144 10.6239 6.23797 10.6784C5.56117 11.3689 3.68615 13.2817 3.43706 13.9764C3.38268 14.1281 3.30379 14.1254 3.2547 14.1236L3.2519 14.1236C2.78299 14.1077 1.05147 11.1234 4.26342 7.9461ZM5.67548 13.6873C6.15008 13.1071 7.65059 11.4753 7.65059 11.4753C7.65059 11.4753 9.12833 13.131 9.6221 13.6817C10.0524 14.1599 10.2879 14.782 10.2822 15.4252C10.2824 15.7709 10.2145 16.1133 10.0824 16.4328C9.95028 16.7522 9.7565 17.0425 9.51214 17.287C9.26778 17.5316 8.97763 17.7256 8.65827 17.8579C8.3389 17.9903 7.99659 18.0584 7.65089 18.0584C7.30519 18.0584 6.96287 17.9903 6.64351 17.8579C6.32415 17.7256 6.034 17.5316 5.78963 17.287C5.54527 17.0425 5.35149 16.7522 5.21937 16.4328C5.08724 16.1133 5.01936 15.7709 5.01961 15.4252C5.02931 14.7873 5.26126 14.1726 5.67548 13.6873Z" fill="#009CDE"/>
<path d="M49.4245 7.57312H46.9149L46.9195 12.2681C46.9195 13.6397 46.3312 14.7497 44.9591 14.7497C43.5866 14.7497 42.9931 13.6397 42.9931 12.2681V7.57789H40.4902L40.4893 12.2681C40.4893 14.9791 42.2322 17.1761 44.9439 17.1761C47.6549 17.1761 49.4236 14.9791 49.4236 12.2681L49.4245 7.57312H49.4245Z" fill="#009CDE"/>
<path d="M74.5464 4.71259H72.0498V16.9339H74.5464V4.71259Z" fill="#009CDE"/>
<path d="M76.3901 5.16314V4.72388H78.3357V5.16314H77.6241V7.09827H77.1019V5.16314H76.3901Z" fill="#009CDE"/>
<path d="M79.344 4.72401L79.8993 6.3566H79.9059L80.4308 4.724H81.1662V7.09817H80.6774V5.41583H80.6708L80.0889 7.09817H79.6867L79.1048 5.43241H79.0982V7.09817H78.6099V4.724H79.3439L79.344 4.72401Z" fill="#009CDE"/>
<path d="M38.4496 7.4712C36.2976 6.97425 34.9396 9.11265 34.8832 9.22712C34.8558 9.28322 34.8544 9.31638 34.7592 9.31366C34.6804 9.31207 34.6713 9.22712 34.6713 9.22712L34.4042 7.59157H32.1675V16.9256H34.6747V11.8736C34.6747 11.4607 35.7865 9.48128 37.9411 9.9905C39.0306 10.2483 39.4923 10.7105 39.4923 10.7105V7.86686C39.165 7.68687 38.814 7.55369 38.4496 7.4712L38.4496 7.4712Z" fill="#009CDE"/>
<path d="M52.8261 20V16.6414L52.827 16.6419L52.8275 15.3843C52.8275 15.3843 52.8315 15.2837 52.9219 15.2825C53.003 15.2819 53.0214 15.3352 53.0407 15.3843C53.2306 15.8574 54.2761 17.6594 56.5962 17.0943C57.4813 16.8446 58.2791 16.3529 58.9 15.6745C59.5209 14.996 59.9401 14.1578 60.1106 13.2541C60.2811 12.3504 60.1961 11.4171 59.8651 10.5591C59.5341 9.7011 58.9702 8.95246 58.237 8.39741C57.5037 7.84236 56.6302 7.50291 55.7145 7.41724C54.7989 7.33158 53.8775 7.50309 53.054 7.91249C52.2306 8.32189 51.5376 8.95294 51.0532 9.73465C50.5688 10.5164 50.3121 11.4177 50.312 12.3374V20H52.8261L52.8261 20ZM55.2566 9.83646C55.7514 9.83648 56.235 9.98322 56.6464 10.2581C57.0577 10.533 57.3783 10.9237 57.5676 11.3809C57.7569 11.838 57.8064 12.341 57.7098 12.8262C57.6132 13.3115 57.3749 13.7572 57.025 14.107C56.6751 14.4568 56.2294 14.695 55.7441 14.7914C55.2588 14.8879 54.7558 14.8382 54.2988 14.6488C53.8417 14.4594 53.4511 14.1387 53.1763 13.7272C52.9015 13.3158 52.7549 12.8321 52.755 12.3374C52.7552 11.674 53.0189 11.0379 53.488 10.569C53.9571 10.1 54.5933 9.83651 55.2566 9.83646Z" fill="#009CDE"/>
<path d="M68.5216 16.9297H71.0355V12.3374C71.0354 11.4177 70.7788 10.5163 70.2943 9.73449C69.8099 8.95272 69.117 8.32162 68.2935 7.91219C67.47 7.50275 66.5485 7.33121 65.6328 7.41687C64.7172 7.50254 63.8435 7.842 63.1102 8.39708C62.377 8.95216 61.8131 9.70083 61.4821 10.5589C61.1511 11.4169 61.0661 12.3503 61.2366 13.2541C61.4071 14.1578 61.8264 14.996 62.4473 15.6745C63.0683 16.3529 63.8662 16.8446 64.7513 17.0943C67.0719 17.6594 68.1164 15.8574 68.3068 15.3843C68.3268 15.3352 68.3445 15.2819 68.4256 15.2825C68.5164 15.2837 68.52 15.3843 68.52 15.3843L68.5216 16.9297ZM68.5927 12.3374C68.5929 12.8322 68.4463 13.3159 68.1714 13.7274C67.8966 14.1389 67.506 14.4596 67.0488 14.6491C66.5917 14.8385 66.0887 14.8881 65.6034 14.7916C65.118 14.6952 64.6722 14.4569 64.3223 14.107C63.9724 13.7572 63.7341 13.3114 63.6376 12.8261C63.5411 12.3408 63.5907 11.8377 63.78 11.3806C63.9694 10.9235 64.2901 10.5328 64.7016 10.2579C65.1131 9.98305 65.5968 9.83639 66.0916 9.83648C66.7549 9.83662 67.3909 10.1002 67.8599 10.5691C68.3289 11.0381 68.5925 11.6741 68.5927 12.3374Z" fill="#009CDE"/>
<path d="M24.3135 16.9101H21.4614V4.70746H24.5215C28.2269 4.70746 31.0374 5.38702 31.0374 10.8088C31.0374 16.1781 28.0604 16.9101 24.3135 16.9101H24.3135ZM24.9942 6.8227H23.9859V14.7931L25.0214 14.8196C27.1448 14.8196 28.5124 14.6264 28.5124 10.809C28.5121 7.14817 27.305 6.8227 24.9942 6.8227V6.8227Z" fill="#009CDE"/>
</svg>
