<svg width="101" height="20" viewBox="0 0 101 20" fill="none" xmlns="http://www.w3.org/2000/svg">
<path d="M31.0847 3.9472V12.3047C31.0847 13.0523 31.1381 13.7465 30.4705 14.2539C29.8564 14.7612 28.8151 14.9214 27.6936 14.9214C25.9848 14.9214 24.1691 14.5209 24.1691 14.5209L23.7686 15.5889C23.7686 15.5889 26.3052 16.1229 28.1475 16.1496C29.6962 16.1763 31.058 15.8292 31.8056 14.9748C32.4197 14.2806 32.6066 13.4795 32.5799 12.1178V3.9472H31.0847Z" fill="#3B3A40"/>
<path d="M43.5576 8.57199C42.4362 7.95787 41.0744 7.63745 39.5257 7.63745C38.0038 7.63745 36.642 7.95787 35.4939 8.57199C34.052 9.34633 33.3311 10.4945 33.3311 11.9363C33.3311 13.3782 34.052 14.5264 35.4939 15.3007C36.642 15.9148 37.9771 16.2352 39.5257 16.2352C41.0477 16.2352 42.4095 15.9148 43.5309 15.3007C44.9728 14.5264 45.6937 13.3782 45.6937 11.9363C45.6937 10.4678 44.9728 9.34633 43.5576 8.57199ZM42.6765 14.4462C41.7953 14.9536 40.754 15.1939 39.5257 15.1939C38.2708 15.1939 37.2027 14.9536 36.3483 14.4729C35.3069 13.8855 34.7996 13.0578 34.7996 11.9363C34.7996 10.8416 35.3336 9.98715 36.3483 9.39973C37.2027 8.91911 38.2708 8.6788 39.5257 8.6788C40.754 8.6788 41.822 8.91911 42.7032 9.39973C43.7178 9.98715 44.2518 10.8416 44.2518 11.9363C44.2251 13.0044 43.7178 13.8588 42.6765 14.4462Z" fill="#3B3A40"/>
<path d="M56.6963 8.57199C55.5748 7.95787 54.2131 7.63745 52.6644 7.63745C51.1424 7.63745 49.7807 7.95787 48.6325 8.57199C47.1907 9.34633 46.4697 10.4945 46.4697 11.9363C46.4697 13.3782 47.1907 14.5264 48.6325 15.3007C49.7807 15.9148 51.1157 16.2352 52.6644 16.2352C54.1864 16.2352 55.5481 15.9148 56.6696 15.3007C58.1114 14.5264 58.8324 13.3782 58.8324 11.9363C58.8324 10.4678 58.1114 9.34633 56.6963 8.57199ZM55.8151 14.4462C54.934 14.9536 53.8926 15.1939 52.6644 15.1939C51.4094 15.1939 50.3414 14.9536 49.487 14.4729C48.4456 13.8855 47.9383 13.0578 47.9383 11.9363C47.9383 10.8416 48.4723 9.98715 49.487 9.39973C50.3414 8.91911 51.4094 8.6788 52.6644 8.6788C53.8926 8.6788 54.9607 8.91911 55.8418 9.39973C56.8565 9.98715 57.3905 10.8416 57.3905 11.9363C57.3638 13.0044 56.8565 13.8588 55.8151 14.4462Z" fill="#3B3A40"/>
<path d="M74.8249 8.35838C74.0239 7.87776 72.9826 7.63745 71.7543 7.63745C70.1789 7.63745 68.924 8.11807 67.9628 9.07931C67.0549 8.11807 65.7733 7.63745 64.1979 7.63745C62.9162 7.63745 61.8749 7.90446 61.0738 8.41179C61.0738 8.22488 61.0738 7.74426 61.0738 7.74426H59.6587V16.0483H61.0738V10.3877C61.1807 9.98715 61.4477 9.61334 61.8749 9.29292C62.4623 8.89241 63.2099 8.6788 64.1445 8.6788C64.9722 8.6788 65.6665 8.839 66.2539 9.18612C66.9481 9.58664 67.2685 10.1207 67.2685 10.8683V16.1017H68.657V10.8416C68.657 10.094 68.9774 9.55994 69.6716 9.15942C70.2591 8.839 70.98 8.6521 71.8077 8.6521C72.6355 8.6521 73.3564 8.8123 73.9438 9.15942C74.638 9.55994 74.9585 10.094 74.9585 10.8416V16.075H76.3736V11.0285C76.3469 9.85365 75.8129 8.94581 74.8249 8.35838Z" fill="#3B3A40"/>
<path d="M77.4663 3.94904V16.0714H78.8815V3.94904H77.4663Z" fill="#3B3A40"/>
<path d="M94.6528 3.94904V13.3211H96.068V3.94904H94.6528Z" fill="#3B3A40"/>
<path d="M90.947 7.73989C90.947 7.73989 90.947 8.88804 90.947 9.15505C89.7454 8.14041 88.1434 7.60638 86.1675 7.60638C84.5921 7.60638 83.2304 7.9001 82.1089 8.51422C80.7204 9.28856 79.9995 10.41 79.9995 11.9053C79.9995 13.3738 80.7204 14.522 82.1623 15.2696C83.2837 15.8837 84.6455 16.1775 86.2209 16.1775C86.9952 16.1775 87.7695 16.0974 88.4638 15.9104C89.4517 15.6434 90.2795 15.2696 90.9203 14.7623C90.9203 15.056 90.9203 16.044 90.9203 16.044H92.3354V7.73989H90.947ZM81.4948 11.932C81.4948 10.8372 82.0288 9.98279 83.0434 9.39536C83.8979 8.91474 84.9926 8.67443 86.2476 8.67443C87.7962 8.67443 88.9978 9.04825 89.8522 9.79588C90.5999 10.4634 90.9737 11.3178 90.9737 12.3592C90.9737 12.3592 90.9737 13.267 90.9737 13.3471C90.3863 14.0147 89.5051 14.522 88.3837 14.8691C87.7161 15.0827 86.9952 15.1895 86.2476 15.1895C84.9659 15.1895 83.8979 14.9492 83.0434 14.4953C82.0021 13.8812 81.4948 13.0534 81.4948 11.932Z" fill="#3B3A40"/>
<path d="M95.3773 14.4986C94.3894 14.4986 94.2559 15.0059 94.2559 15.3263C94.2559 15.6467 94.4161 16.1541 95.3773 16.1541C96.3652 16.1541 96.4988 15.62 96.4988 15.3263C96.4988 15.0326 96.3385 14.4986 95.3773 14.4986Z" fill="#3B3A40"/>
<path d="M100.45 5.44616C100.45 6.2739 99.9165 6.96813 98.9552 6.96813C97.994 6.96813 97.46 6.2739 97.46 5.44616C97.46 4.61842 97.994 3.92419 98.9552 3.92419C99.9165 3.92419 100.45 4.61842 100.45 5.44616ZM97.7804 5.44616C97.7804 6.14039 98.2076 6.67441 98.9552 6.67441C99.7029 6.67441 100.13 6.14039 100.13 5.44616C100.13 4.75193 99.7029 4.21791 98.9552 4.21791C98.2076 4.21791 97.7804 4.75193 97.7804 5.44616ZM99.2489 5.63307C99.8364 5.52626 99.783 4.64513 99.1154 4.64513H98.3945V6.19379H98.6882V5.65977H98.9552L99.3824 6.19379H99.7029V6.14039L99.2489 5.63307ZM99.1154 4.91214C99.4625 4.91214 99.4625 5.41946 99.1154 5.41946H98.6882V4.91214H99.1154Z" fill="#3B3A40"/>
<path d="M3.57796 10.0663L3.20414 9.69252C2.00259 8.49097 1.65547 6.8088 2.08269 5.28683C0.881139 5.01982 0 3.95177 0 2.67012C0 1.20155 1.20155 0 2.67012 0C4.00517 0 5.09992 0.961242 5.31353 2.2429C6.75539 1.89578 8.33076 2.2963 9.45221 3.41775L9.61242 3.57796L7.63653 5.55384L7.47632 5.39363C6.8355 4.75281 5.79415 4.75281 5.15332 5.39363C4.5125 6.03446 4.5125 7.07581 5.15332 7.71664L9.58572 12.149L7.60983 14.1249L5.52714 12.0422L3.57796 10.0663Z" fill="#7AC143"/>
<path d="M5.78711 7.87498L7.8698 5.79229L9.84569 3.81641L10.2195 3.44259C11.3944 2.26774 13.1032 1.89392 14.5985 2.32114C14.7854 1.01278 15.9068 0.0248413 17.2419 0.0248413C18.7105 0.0248413 19.912 1.22639 19.912 2.69496C19.912 4.05672 18.8974 5.17817 17.589 5.33837C18.0162 6.83364 17.6424 8.51581 16.4676 9.69066L16.3074 9.85087L14.3849 7.87498L14.5451 7.71478C15.1859 7.07395 15.1859 6.0326 14.5451 5.39178C13.9043 4.75095 12.8629 4.75095 12.2221 5.39178L11.8483 5.76559L9.87239 7.74148L7.7897 9.82417L5.78711 7.87498Z" fill="#F9A541"/>
<path d="M14.6761 17.8372C13.1541 18.2911 11.4453 17.944 10.2437 16.7424L10.0835 16.5822L12.0594 14.6063L12.2196 14.7666C12.8604 15.4074 13.9018 15.4074 14.5426 14.7666C15.1834 14.1257 15.1834 13.0844 14.5426 12.4436L14.1688 12.0697L12.1929 10.0939L10.1102 8.01116L12.0861 6.03528L16.5452 10.4944C17.6666 11.6158 18.0671 13.2179 17.72 14.6865C19.0284 14.8734 20.0163 15.9948 20.0163 17.3299C20.0163 18.7984 18.8148 20 17.3462 20C16.0112 19.9733 14.9164 19.0387 14.6761 17.8372Z" fill="#F44321"/>
<path d="M13.9113 12.2831L11.8286 14.3658L9.85273 16.3417L9.47891 16.7155C8.33076 17.8637 6.72869 18.2375 5.28683 17.8904C5.01982 19.0919 3.95177 19.9731 2.67012 19.9731C1.20155 19.9731 0 18.7715 0 17.303C0 16.048 0.881138 14.98 2.05599 14.7129C1.68217 13.2177 2.05599 11.6156 3.20414 10.4675L3.36435 10.3073L5.34023 12.2831L5.18003 12.4433C4.5392 13.0842 4.5392 14.1255 5.18003 14.7663C5.82085 15.4072 6.8622 15.4072 7.50303 14.7663L7.87684 14.3925L9.85273 12.4166L11.9354 10.334L13.9113 12.2831Z" fill="#5091CD"/>
</svg>
