<svg width="103" height="20" viewBox="0 0 103 20" fill="none" xmlns="http://www.w3.org/2000/svg">
<path d="M10.208 10.4262C10.208 11.9629 9.75059 13.2573 8.83257 14.3052C7.87457 15.4031 6.62973 15.9542 5.10591 15.9542C3.57804 15.9542 2.33724 15.4031 1.3792 14.3052C0.460805 13.2573 0 11.9629 0 10.4262C0 8.88524 0.460805 7.59124 1.3792 6.54718C2.34788 5.45955 3.59275 4.916 5.10591 4.916C6.62973 4.916 7.87457 5.45955 8.83257 6.54718C9.75059 7.59124 10.208 8.88524 10.208 10.4262ZM7.174 10.4262C7.174 9.73014 7.00724 9.14262 6.67338 8.66763C6.29983 8.12771 5.77708 7.8595 5.10591 7.8595C4.43448 7.8595 3.91193 8.12771 3.53802 8.66763C3.2007 9.14262 3.03377 9.73014 3.03377 10.4262C3.03377 11.1184 3.2007 11.7129 3.53802 12.2022C3.91193 12.7421 4.43448 13.0108 5.10591 13.0108C5.77708 13.0108 6.29983 12.7421 6.67338 12.2022C7.00724 11.7129 7.174 11.1184 7.174 10.4262ZM21.1778 10.4262C21.1778 11.8616 20.7641 13.1158 19.933 14.1889C19.044 15.3633 17.8973 15.9542 16.5038 15.9542C15.5203 15.9542 14.6859 15.6679 14.0036 15.1025C14.0036 15.2327 14.0181 15.5482 14.0473 16.0525C14.0763 16.5594 14.0906 16.9728 14.0906 17.2991C14.0906 19.1012 13.5535 20 12.4796 20C12.0404 20 11.6813 19.8441 11.3945 19.5358C11.1115 19.2244 10.9699 18.8503 10.9699 18.4086V6.68865C10.9699 6.26085 11.1151 5.89094 11.4054 5.57949C11.6956 5.27126 12.055 5.11574 12.4832 5.11574C13.1289 5.11574 13.6008 5.43765 13.8985 6.0798C14.5334 5.30403 15.4008 4.916 16.5002 4.916C17.8973 4.916 19.0403 5.4957 19.933 6.65971C20.7605 7.73651 21.1778 8.99073 21.1778 10.4262ZM18.1439 10.4262C18.1439 9.73014 17.9737 9.14262 17.6398 8.66763C17.2657 8.12771 16.7434 7.8595 16.0719 7.8595C15.4008 7.8595 14.8782 8.12771 14.5043 8.66763C14.1704 9.14262 14.0036 9.73014 14.0036 10.4262C14.0036 11.1184 14.1704 11.7129 14.5043 12.2022C14.8782 12.7421 15.4008 13.0108 16.0719 13.0108C16.7434 13.0108 17.2657 12.7421 17.6398 12.2022C17.9737 11.7129 18.1439 11.1184 18.1439 10.4262ZM32.2165 10.1003C32.2165 10.6072 32.0967 10.9553 31.8571 11.1514C31.6178 11.3432 31.244 11.4411 30.7396 11.4411H25.2636C25.2636 12.0212 25.5359 12.4669 26.0802 12.7783C26.5193 13.0216 27.0563 13.1452 27.6913 13.1452C28.1851 13.1452 28.7765 12.9815 29.4696 12.6593C30.1627 12.3328 30.6088 12.1731 30.8015 12.1731C31.1533 12.1731 31.4508 12.3001 31.6976 12.5611C31.9406 12.8187 32.0643 13.1303 32.0643 13.4894C32.0643 14.3191 31.4438 14.965 30.2023 15.4288C29.2554 15.7766 28.2937 15.9542 27.3106 15.9542C25.7284 15.9542 24.451 15.4288 23.4749 14.3814C22.4985 13.3335 22.0089 12.0176 22.0089 10.4262C22.0089 8.91056 22.5168 7.61657 23.5328 6.53672C24.5451 5.45593 25.8047 4.916 27.3068 4.916C28.7038 4.916 29.8723 5.42719 30.8088 6.44935C31.7447 7.47188 32.2165 8.68974 32.2165 10.1003ZM29.183 9.33853C29.1683 8.87437 28.9543 8.45402 28.5405 8.07307C28.1268 7.6927 27.6879 7.50445 27.2233 7.50445C26.7444 7.50445 26.2979 7.6927 25.8843 8.07307C25.4708 8.45402 25.2636 8.87437 25.2636 9.33853H29.183ZM42.4097 14.1631C42.4097 14.6058 42.2683 14.9789 41.9856 15.2907C41.6987 15.5992 41.3393 15.7551 40.9003 15.7551C39.8407 15.7551 39.3107 14.914 39.3107 13.2356C39.3107 12.9129 39.3326 12.4056 39.376 11.7059C39.4233 11.0097 39.4453 10.4987 39.4453 10.176C39.4453 8.39575 38.8682 7.50445 37.7179 7.50445C36.5674 7.50445 35.9941 8.39575 35.9941 10.176C35.9941 10.4987 36.0122 11.0097 36.0448 11.7059C36.0812 12.4056 36.0993 12.9129 36.0993 13.2356C36.0993 14.914 35.5768 15.7551 34.5318 15.7551C34.0925 15.7551 33.7335 15.5992 33.4503 15.2907C33.1637 14.9789 33.0221 14.6058 33.0221 14.1631V6.68544C33.0221 6.24599 33.1637 5.87327 33.4503 5.57225C33.7335 5.26764 34.0964 5.11574 34.5355 5.11574C35.2612 5.11574 35.7654 5.43765 36.0484 6.0798C36.5384 5.30403 37.4055 4.916 38.6467 4.916C39.797 4.916 40.7116 5.22024 41.383 5.82563C42.0688 6.47504 42.4097 7.36639 42.4097 8.50124V14.1631ZM51.9279 13.841C51.9279 14.526 51.4824 15.0695 50.5892 15.4688C49.8819 15.791 49.1132 15.9566 48.3359 15.9542C46.8075 15.9542 45.5669 15.4031 44.609 14.3052C43.6907 13.2573 43.2299 11.9629 43.2299 10.4262C43.2299 8.88524 43.6981 7.5842 44.6379 6.51827C45.5776 5.44909 46.8075 4.916 48.3359 4.916C49.2175 4.916 49.9759 5.04644 50.6077 5.30403C51.4889 5.65204 51.9279 6.19555 51.9279 6.93521C51.9279 7.30833 51.8121 7.63826 51.5796 7.9248C51.3476 8.2075 51.0496 8.35256 50.6873 8.35256C50.44 8.35256 50.0843 8.26918 49.6202 8.10642C49.1557 7.93925 48.7859 7.8595 48.5139 7.8595C47.7914 7.8595 47.2288 8.11688 46.8261 8.63144C46.4522 9.0956 46.2635 9.69016 46.2635 10.4262C46.2635 11.1184 46.4304 11.7059 46.7684 12.1807C47.1414 12.7355 47.6681 13.0108 48.3392 13.0108C48.6372 13.0108 49.0431 12.9238 49.5621 12.7457C50.0814 12.5723 50.4552 12.4817 50.6873 12.4817C51.0248 12.4817 51.3146 12.6264 51.5619 12.9093C51.8051 13.1956 51.9279 13.5035 51.9279 13.841ZM62.9559 14.1631C62.9559 14.6058 62.8145 14.9789 62.5314 15.2907C62.2449 15.5992 61.8822 15.7551 61.4424 15.7551C60.7821 15.7551 60.3106 15.4322 60.0274 14.7906C59.3927 15.5666 58.5251 15.9542 57.4258 15.9542C56.0183 15.9542 54.8642 15.3633 53.971 14.1889C53.1582 13.1158 52.7489 11.8616 52.7489 10.4262C52.7489 8.99073 53.1582 7.73651 53.971 6.65971C54.8786 5.4957 56.0286 4.916 57.4258 4.916C58.5251 4.916 59.3927 5.30403 60.0274 6.0798C60.3106 5.43765 60.7821 5.11574 61.4424 5.11574C61.8711 5.11574 62.2305 5.27126 62.5211 5.57949C62.8108 5.89094 62.9559 6.25723 62.9559 6.68544V14.1631ZM59.9223 10.4262C59.9223 9.73014 59.7558 9.14262 59.4215 8.66763C59.0333 8.12771 58.5107 7.8595 57.8541 7.8595C57.1826 7.8595 56.6604 8.12771 56.2862 8.66763C55.949 9.14262 55.7825 9.73014 55.7825 10.4262C55.7825 11.1184 55.9449 11.7129 56.2676 12.2022C56.653 12.7421 57.1826 13.0108 57.8541 13.0108C58.5251 13.0108 59.0477 12.7421 59.4215 12.2022C59.7558 11.7129 59.9223 11.1184 59.9223 10.4262ZM70.6964 6.4855C70.6964 7.13433 70.3807 7.58017 69.7493 7.82289C69.1652 8.01901 68.5841 8.21875 68.0037 8.4247C67.3682 8.78757 67.0529 9.46173 67.0529 10.4407V14.1631C67.0529 14.6058 66.9074 14.9789 66.625 15.2907C66.3377 15.5992 65.975 15.7551 65.5361 15.7551C65.0938 15.7551 64.7303 15.5992 64.4479 15.2907C64.1607 14.9789 64.0193 14.6058 64.0193 14.1631V6.68544C64.0193 6.24599 64.1607 5.87327 64.4438 5.57225C64.7303 5.26764 65.0938 5.11574 65.5328 5.11574C66.2582 5.11574 66.7623 5.43765 67.0458 6.0798C67.6954 5.30403 68.3924 4.916 69.1434 4.916C69.5712 4.916 69.938 5.07156 70.2426 5.37975C70.5435 5.69161 70.6964 6.06132 70.6964 6.4855ZM78.6109 6.62335C78.6109 7.29746 78.3459 7.72164 77.8204 7.90326C77.5619 7.99368 77.0207 8.0407 76.1972 8.0407V14.1631C76.1972 14.6058 76.0521 14.9789 75.7698 15.2907C75.4825 15.5992 75.1198 15.7551 74.6809 15.7551C74.253 15.7551 73.8895 15.5992 73.5989 15.2907C73.3092 14.9789 73.1641 14.6058 73.1641 14.1631V8.0407C72.5396 8.0407 72.0863 7.96095 71.7998 7.80543C71.4082 7.58783 71.2145 7.19259 71.2145 6.62335C71.2145 6.05448 71.4144 5.66649 71.8171 5.45955C72.0896 5.30725 72.5396 5.22786 73.1641 5.22786V3.93004C73.1641 2.40398 73.6677 1.64283 74.6809 1.64283C75.6894 1.64283 76.1972 2.40398 76.1972 3.93004V5.22786C77.0207 5.22786 77.5619 5.27488 77.8204 5.3653C78.3459 5.54655 78.6109 5.96748 78.6109 6.62335ZM102.983 4.7826C102.975 3.85209 101.253 3.42972 96.7978 3.42972C86.3436 3.42972 83.6913 2.98364 80.8531 0C82.0471 1.79151 82.7004 5.15173 93.7503 4.98452C105.279 4.8071 98.2458 7.95411 96.1994 11.5096C99.8899 8.21916 102.972 6.05028 102.983 4.79606V4.7826ZM88.2923 14.3375C88.2919 15.2025 87.5797 15.914 86.7137 15.9142C85.8391 15.9142 85.1318 15.2078 85.1318 14.3375C85.1318 14.3371 85.1318 14.3367 85.1318 14.3363C85.1318 13.47 85.8453 12.757 86.7129 12.757C86.7133 12.757 86.7133 12.757 86.7137 12.757C87.5855 12.757 88.2923 13.4637 88.2923 14.3375ZM95.4917 14.3375C95.4913 15.2025 94.779 15.914 93.9131 15.9142C93.0393 15.9142 92.3316 15.2078 92.3316 14.3375C92.3316 14.3371 92.3316 14.3367 92.3316 14.3363C92.3316 13.47 93.045 12.757 93.9122 12.757C93.9127 12.757 93.9127 12.757 93.9131 12.757C94.7848 12.757 95.4917 13.4637 95.4917 14.3375Z" fill="url(#paint0_linear)"/>
<defs>
<linearGradient id="paint0_linear" x1="51.4914" y1="15.8208" x2="51.4914" y2="4.14916e-05" gradientUnits="userSpaceOnUse">
<stop stop-color="#04B6F0"/>
<stop offset="1" stop-color="#3ECAF0"/>
</linearGradient>
</defs>
</svg>
