<svg width="103" height="33" viewBox="0 0 103 33" fill="none" xmlns="http://www.w3.org/2000/svg">
<path d="M10.208 23.4262C10.208 24.9629 9.75059 26.2573 8.83257 27.3052C7.87457 28.4031 6.62973 28.9542 5.10591 28.9542C3.57804 28.9542 2.33724 28.4031 1.3792 27.3052C0.460805 26.2573 0 24.9629 0 23.4262C0 21.8852 0.460805 20.5912 1.3792 19.5472C2.34788 18.4596 3.59275 17.916 5.10591 17.916C6.62973 17.916 7.87457 18.4596 8.83257 19.5472C9.75059 20.5912 10.208 21.8852 10.208 23.4262ZM7.174 23.4262C7.174 22.7301 7.00724 22.1426 6.67338 21.6676C6.29983 21.1277 5.77708 20.8595 5.10591 20.8595C4.43448 20.8595 3.91193 21.1277 3.53802 21.6676C3.2007 22.1426 3.03377 22.7301 3.03377 23.4262C3.03377 24.1184 3.2007 24.7129 3.53802 25.2022C3.91193 25.7421 4.43448 26.0108 5.10591 26.0108C5.77708 26.0108 6.29983 25.7421 6.67338 25.2022C7.00724 24.7129 7.174 24.1184 7.174 23.4262ZM21.1778 23.4262C21.1778 24.8616 20.7641 26.1158 19.933 27.1889C19.044 28.3633 17.8973 28.9542 16.5038 28.9542C15.5203 28.9542 14.6859 28.6679 14.0036 28.1025C14.0036 28.2327 14.0181 28.5482 14.0473 29.0525C14.0763 29.5594 14.0906 29.9728 14.0906 30.2991C14.0906 32.1012 13.5535 33 12.4796 33C12.0404 33 11.6813 32.8441 11.3945 32.5358C11.1115 32.2244 10.9699 31.8503 10.9699 31.4086V19.6887C10.9699 19.2609 11.1151 18.8909 11.4054 18.5795C11.6956 18.2713 12.055 18.1157 12.4832 18.1157C13.1289 18.1157 13.6008 18.4376 13.8985 19.0798C14.5334 18.304 15.4008 17.916 16.5002 17.916C17.8973 17.916 19.0403 18.4957 19.933 19.6597C20.7605 20.7365 21.1778 21.9907 21.1778 23.4262ZM18.1439 23.4262C18.1439 22.7301 17.9737 22.1426 17.6398 21.6676C17.2657 21.1277 16.7434 20.8595 16.0719 20.8595C15.4008 20.8595 14.8782 21.1277 14.5043 21.6676C14.1704 22.1426 14.0036 22.7301 14.0036 23.4262C14.0036 24.1184 14.1704 24.7129 14.5043 25.2022C14.8782 25.7421 15.4008 26.0108 16.0719 26.0108C16.7434 26.0108 17.2657 25.7421 17.6398 25.2022C17.9737 24.7129 18.1439 24.1184 18.1439 23.4262ZM32.2165 23.1003C32.2165 23.6072 32.0967 23.9553 31.8571 24.1514C31.6178 24.3432 31.244 24.4411 30.7396 24.4411H25.2636C25.2636 25.0212 25.5359 25.4669 26.0802 25.7783C26.5193 26.0216 27.0563 26.1452 27.6913 26.1452C28.1851 26.1452 28.7765 25.9815 29.4696 25.6593C30.1627 25.3328 30.6088 25.1731 30.8015 25.1731C31.1533 25.1731 31.4508 25.3001 31.6976 25.5611C31.9406 25.8187 32.0643 26.1303 32.0643 26.4894C32.0643 27.3191 31.4438 27.965 30.2023 28.4288C29.2554 28.7766 28.2937 28.9542 27.3106 28.9542C25.7284 28.9542 24.451 28.4288 23.4749 27.3814C22.4985 26.3335 22.0089 25.0176 22.0089 23.4262C22.0089 21.9106 22.5168 20.6166 23.5328 19.5367C24.5451 18.4559 25.8047 17.916 27.3068 17.916C28.7038 17.916 29.8723 18.4272 30.8088 19.4493C31.7447 20.4719 32.2165 21.6897 32.2165 23.1003ZM29.183 22.3385C29.1683 21.8744 28.9543 21.454 28.5405 21.0731C28.1268 20.6927 27.6879 20.5044 27.2233 20.5044C26.7444 20.5044 26.2979 20.6927 25.8843 21.0731C25.4708 21.454 25.2636 21.8744 25.2636 22.3385H29.183ZM42.4097 27.1631C42.4097 27.6058 42.2683 27.9789 41.9856 28.2907C41.6987 28.5992 41.3393 28.7551 40.9003 28.7551C39.8407 28.7551 39.3107 27.914 39.3107 26.2356C39.3107 25.9129 39.3326 25.4056 39.376 24.7059C39.4233 24.0097 39.4453 23.4987 39.4453 23.176C39.4453 21.3958 38.8682 20.5044 37.7179 20.5044C36.5674 20.5044 35.9941 21.3958 35.9941 23.176C35.9941 23.4987 36.0122 24.0097 36.0448 24.7059C36.0812 25.4056 36.0993 25.9129 36.0993 26.2356C36.0993 27.914 35.5768 28.7551 34.5318 28.7551C34.0925 28.7551 33.7335 28.5992 33.4503 28.2907C33.1637 27.9789 33.0221 27.6058 33.0221 27.1631V19.6854C33.0221 19.246 33.1637 18.8733 33.4503 18.5722C33.7335 18.2676 34.0964 18.1157 34.5355 18.1157C35.2612 18.1157 35.7654 18.4376 36.0484 19.0798C36.5384 18.304 37.4055 17.916 38.6467 17.916C39.797 17.916 40.7116 18.2202 41.383 18.8256C42.0688 19.475 42.4097 20.3664 42.4097 21.5012V27.1631ZM51.9279 26.841C51.9279 27.526 51.4824 28.0695 50.5892 28.4688C49.8819 28.791 49.1132 28.9566 48.3359 28.9542C46.8075 28.9542 45.5669 28.4031 44.609 27.3052C43.6907 26.2573 43.2299 24.9629 43.2299 23.4262C43.2299 21.8852 43.6981 20.5842 44.6379 19.5183C45.5776 18.4491 46.8075 17.916 48.3359 17.916C49.2175 17.916 49.9759 18.0464 50.6077 18.304C51.4889 18.652 51.9279 19.1955 51.9279 19.9352C51.9279 20.3083 51.8121 20.6383 51.5796 20.9248C51.3476 21.2075 51.0496 21.3526 50.6873 21.3526C50.44 21.3526 50.0843 21.2692 49.6202 21.1064C49.1557 20.9393 48.7859 20.8595 48.5139 20.8595C47.7914 20.8595 47.2288 21.1169 46.8261 21.6314C46.4522 22.0956 46.2635 22.6902 46.2635 23.4262C46.2635 24.1184 46.4304 24.7059 46.7684 25.1807C47.1414 25.7355 47.6681 26.0108 48.3392 26.0108C48.6372 26.0108 49.0431 25.9238 49.5621 25.7457C50.0814 25.5723 50.4552 25.4817 50.6873 25.4817C51.0248 25.4817 51.3146 25.6264 51.5619 25.9093C51.8051 26.1956 51.9279 26.5035 51.9279 26.841ZM62.9559 27.1631C62.9559 27.6058 62.8145 27.9789 62.5314 28.2907C62.2449 28.5992 61.8822 28.7551 61.4424 28.7551C60.7821 28.7551 60.3106 28.4322 60.0274 27.7906C59.3927 28.5666 58.5251 28.9542 57.4258 28.9542C56.0183 28.9542 54.8642 28.3633 53.971 27.1889C53.1582 26.1158 52.7489 24.8616 52.7489 23.4262C52.7489 21.9907 53.1582 20.7365 53.971 19.6597C54.8786 18.4957 56.0286 17.916 57.4258 17.916C58.5251 17.916 59.3927 18.304 60.0274 19.0798C60.3106 18.4376 60.7821 18.1157 61.4424 18.1157C61.8711 18.1157 62.2305 18.2713 62.5211 18.5795C62.8108 18.8909 62.9559 19.2572 62.9559 19.6854V27.1631ZM59.9223 23.4262C59.9223 22.7301 59.7558 22.1426 59.4215 21.6676C59.0333 21.1277 58.5107 20.8595 57.8541 20.8595C57.1826 20.8595 56.6604 21.1277 56.2862 21.6676C55.949 22.1426 55.7825 22.7301 55.7825 23.4262C55.7825 24.1184 55.9449 24.7129 56.2676 25.2022C56.653 25.7421 57.1826 26.0108 57.8541 26.0108C58.5251 26.0108 59.0477 25.7421 59.4215 25.2022C59.7558 24.7129 59.9223 24.1184 59.9223 23.4262ZM70.6964 19.4855C70.6964 20.1343 70.3807 20.5802 69.7493 20.8229C69.1652 21.019 68.5841 21.2187 68.0037 21.4247C67.3682 21.7876 67.0529 22.4617 67.0529 23.4407V27.1631C67.0529 27.6058 66.9074 27.9789 66.625 28.2907C66.3377 28.5992 65.975 28.7551 65.5361 28.7551C65.0938 28.7551 64.7303 28.5992 64.4479 28.2907C64.1607 27.9789 64.0193 27.6058 64.0193 27.1631V19.6854C64.0193 19.246 64.1607 18.8733 64.4438 18.5722C64.7303 18.2676 65.0938 18.1157 65.5328 18.1157C66.2582 18.1157 66.7623 18.4376 67.0458 19.0798C67.6954 18.304 68.3924 17.916 69.1434 17.916C69.5712 17.916 69.938 18.0716 70.2426 18.3798C70.5435 18.6916 70.6964 19.0613 70.6964 19.4855ZM78.6109 19.6234C78.6109 20.2975 78.3459 20.7216 77.8204 20.9033C77.5619 20.9937 77.0207 21.0407 76.1972 21.0407V27.1631C76.1972 27.6058 76.0521 27.9789 75.7698 28.2907C75.4825 28.5992 75.1198 28.7551 74.6809 28.7551C74.253 28.7551 73.8895 28.5992 73.5989 28.2907C73.3092 27.9789 73.1641 27.6058 73.1641 27.1631V21.0407C72.5396 21.0407 72.0863 20.961 71.7998 20.8054C71.4082 20.5878 71.2145 20.1926 71.2145 19.6234C71.2145 19.0545 71.4144 18.6665 71.8171 18.4596C72.0896 18.3072 72.5396 18.2279 73.1641 18.2279V16.93C73.1641 15.404 73.6677 14.6428 74.6809 14.6428C75.6894 14.6428 76.1972 15.404 76.1972 16.93V18.2279C77.0207 18.2279 77.5619 18.2749 77.8204 18.3653C78.3459 18.5466 78.6109 18.9675 78.6109 19.6234ZM102.983 17.7826C102.975 16.8521 101.253 16.4297 96.7978 16.4297C86.3436 16.4297 83.6913 15.9836 80.8531 13C82.0471 14.7915 82.7004 18.1517 93.7503 17.9845C105.279 17.8071 98.2458 20.9541 96.1994 24.5096C99.8899 21.2192 102.972 19.0503 102.983 17.7961V17.7826ZM88.2923 27.3375C88.2919 28.2025 87.5797 28.914 86.7137 28.9142C85.8391 28.9142 85.1318 28.2078 85.1318 27.3375C85.1318 27.3371 85.1318 27.3367 85.1318 27.3363C85.1318 26.47 85.8453 25.757 86.7129 25.757C86.7133 25.757 86.7133 25.757 86.7137 25.757C87.5855 25.757 88.2923 26.4637 88.2923 27.3375ZM95.4917 27.3375C95.4913 28.2025 94.779 28.914 93.9131 28.9142C93.0393 28.9142 92.3316 28.2078 92.3316 27.3375C92.3316 27.3371 92.3316 27.3367 92.3316 27.3363C92.3316 26.47 93.045 25.757 93.9122 25.757C93.9127 25.757 93.9127 25.757 93.9131 25.757C94.7848 25.757 95.4917 26.4637 95.4917 27.3375Z" fill="url(#paint0_linear)"/>
<path d="M84.648 11C84.588 11 84.537 10.982 84.495 10.946C84.459 10.904 84.441 10.853 84.441 10.793V10.523C84.441 10.385 84.516 10.253 84.666 10.127L86.628 8.174C87.072 7.796 87.378 7.487 87.546 7.247C87.714 7.007 87.798 6.752 87.798 6.482C87.798 6.128 87.699 5.852 87.501 5.654C87.303 5.45 87.015 5.348 86.637 5.348C86.277 5.348 85.992 5.453 85.782 5.663C85.572 5.873 85.443 6.155 85.395 6.509C85.383 6.575 85.353 6.626 85.305 6.662C85.257 6.698 85.209 6.716 85.161 6.716H84.729C84.675 6.716 84.63 6.698 84.594 6.662C84.558 6.626 84.54 6.584 84.54 6.536C84.552 6.218 84.636 5.912 84.792 5.618C84.954 5.318 85.191 5.075 85.503 4.889C85.815 4.697 86.193 4.601 86.637 4.601C87.309 4.601 87.813 4.778 88.149 5.132C88.491 5.48 88.662 5.924 88.662 6.464C88.662 6.842 88.569 7.184 88.383 7.49C88.203 7.79 87.918 8.108 87.528 8.444L85.755 10.244H88.59C88.656 10.244 88.707 10.262 88.743 10.298C88.779 10.334 88.797 10.385 88.797 10.451V10.793C88.797 10.853 88.776 10.904 88.734 10.946C88.698 10.982 88.65 11 88.59 11H84.648ZM90.0749 11C90.0149 11 89.9639 10.982 89.9219 10.946C89.8859 10.904 89.8679 10.853 89.8679 10.793V10.172C89.8679 10.112 89.8859 10.061 89.9219 10.019C89.9639 9.977 90.0149 9.956 90.0749 9.956H90.6959C90.7559 9.956 90.8039 9.977 90.8399 10.019C90.8819 10.061 90.9029 10.112 90.9029 10.172V10.793C90.9029 10.853 90.8819 10.904 90.8399 10.946C90.8039 10.982 90.7559 11 90.6959 11H90.0749ZM94.1699 11.09C93.7019 11.09 93.2969 11.015 92.9549 10.865C92.6129 10.709 92.3519 10.508 92.1719 10.262C91.9979 10.016 91.9049 9.761 91.8929 9.497C91.8929 9.443 91.9109 9.401 91.9469 9.371C91.9829 9.335 92.0279 9.317 92.0819 9.317H92.4869C92.5529 9.317 92.6069 9.332 92.6489 9.362C92.6909 9.386 92.7239 9.437 92.7479 9.515C92.8259 9.821 92.9939 10.037 93.2519 10.163C93.5159 10.289 93.8249 10.352 94.1789 10.352C94.6109 10.352 94.9529 10.25 95.2049 10.046C95.4629 9.836 95.5919 9.539 95.5919 9.155C95.5919 8.423 95.1449 8.057 94.2509 8.057H93.4049C93.3449 8.057 93.2939 8.039 93.2519 8.003C93.2159 7.961 93.1979 7.91 93.1979 7.85V7.616C93.1979 7.526 93.2309 7.448 93.2969 7.382L95.0519 5.438H92.3879C92.3279 5.438 92.2769 5.42 92.2349 5.384C92.1989 5.348 92.1809 5.3 92.1809 5.24V4.916C92.1809 4.85 92.1989 4.799 92.2349 4.763C92.2769 4.721 92.3279 4.7 92.3879 4.7H95.9519C96.0179 4.7 96.0689 4.721 96.1049 4.763C96.1469 4.799 96.1679 4.85 96.1679 4.916V5.213C96.1679 5.279 96.1379 5.348 96.0779 5.42L94.3229 7.391H94.4669C95.0789 7.409 95.5619 7.568 95.9159 7.868C96.2759 8.168 96.4559 8.606 96.4559 9.182C96.4559 9.578 96.3569 9.92 96.1589 10.208C95.9669 10.49 95.6969 10.709 95.3489 10.865C95.0009 11.015 94.6079 11.09 94.1699 11.09Z" fill="#30C5F1"/>
<defs>
<linearGradient id="paint0_linear" x1="51.4914" y1="28.8208" x2="51.4914" y2="13" gradientUnits="userSpaceOnUse">
<stop stop-color="#04B6F0"/>
<stop offset="1" stop-color="#3ECAF0"/>
</linearGradient>
</defs>
</svg>
