<svg width="54" height="21" viewBox="0 0 54 21" fill="none" xmlns="http://www.w3.org/2000/svg">
<path d="M4.87852 18.6295H3.86783L0 8.15334H2.02138L4.41205 15.131C8.08552 5.58774 16.4237 1.54498 24.0816 0.281616L24.3149 0.63147C19.3003 1.81709 14.655 3.74129 11.001 7.4925L10.8844 7.47306L10.7483 7.45363H10.6122H10.4762L10.3401 7.47306L10.2041 7.51194L10.068 7.55081L9.95141 7.60912L9.83479 7.68686L9.71817 7.76461L9.62099 7.86179L9.52381 7.95897L9.44606 8.07559L9.36832 8.19221L9.31001 8.30883L9.27114 8.44488L9.23226 8.58094L9.21283 8.71699V8.85304V8.9891L9.23226 9.12515L9.27114 9.26121L9.31001 9.39726L9.32945 9.4167C9.23226 9.55275 9.13508 9.66937 9.0379 9.80542H8.51312V10.544C7.03596 12.7597 5.81147 15.4031 4.87852 18.6295Z" fill="#5875AA"/>
<path fill-rule="evenodd" clip-rule="evenodd" d="M31.3508 13.887H26.9776C26.9971 14.3729 27.172 14.7617 27.483 15.0143C27.794 15.2864 28.2021 15.4225 28.7269 15.4225C29.3683 15.4225 29.8736 15.2476 30.2041 14.9171L30.7483 16.0056C30.2429 16.4137 29.5044 16.6081 28.4937 16.6081C27.5607 16.6081 26.8221 16.336 26.2779 15.7918C25.7337 15.2476 25.4616 14.4895 25.4616 13.4983C25.4616 12.5265 25.7531 11.749 26.3557 11.1659C26.9582 10.5634 27.6579 10.2719 28.4937 10.2719C29.3877 10.2719 30.0874 10.544 30.6317 11.0688C31.1759 11.5935 31.4286 12.2738 31.4286 13.0901C31.4674 13.2845 31.4286 13.5372 31.3508 13.887ZM10.6122 8.03668C10.8455 8.03668 11.0398 8.11443 11.1953 8.28935C11.3508 8.44485 11.448 8.63921 11.448 8.87244C11.448 9.10568 11.3702 9.30004 11.1953 9.45554C11.0398 9.61103 10.8455 9.68877 10.6122 9.68877C10.379 9.68877 10.1846 9.61103 10.0291 9.45554C9.87365 9.30004 9.7959 9.10568 9.7959 8.87244C9.7959 8.63921 9.87365 8.44485 10.0291 8.28935C10.1846 8.11443 10.3984 8.03668 10.6122 8.03668ZM9.87365 16.5109V11.5741H9.09619V10.4079H11.3314V16.5109H9.87365ZM14.7522 11.5741C14.4218 11.5741 14.1302 11.613 13.8775 11.924C13.6249 12.2349 13.4888 12.5848 13.4888 13.0318V16.5109H12.0505V10.4079H13.4694V10.9716C13.8775 10.5245 14.4023 10.4079 15.0631 10.4079C15.413 10.4079 15.7045 10.3496 15.9378 10.4079H16.0933V9.16399L17.5121 8.63921V10.4079H19.1837V11.5547H17.5121V14.2369C17.5121 14.6839 17.5899 14.9755 17.7259 15.1698C17.862 15.3447 18.0952 15.4419 18.4451 15.4419C18.7949 15.4419 19.1059 15.3447 19.3975 15.1698V16.4915C19.067 16.6081 18.6006 16.6664 17.9786 16.6664C17.3761 16.6664 16.9096 16.4915 16.5792 16.1416C16.2488 15.7918 16.0933 15.3059 16.0933 14.6645V11.5547C15.5491 11.5547 15.3547 11.5741 14.7522 11.5741ZM23.7512 16.5109V16.0056C23.5568 16.1805 23.2653 16.3166 22.9154 16.4526C22.5656 16.5692 22.2352 16.6275 21.9436 16.6275C20.5248 16.6275 19.8251 15.8695 19.8251 14.3729V10.4079H21.2439V14.2757C21.2439 15.0532 21.5938 15.4419 22.2935 15.4419C22.6239 15.4419 22.9154 15.3642 23.1875 15.1893C23.4597 15.0143 23.654 14.82 23.7318 14.6062V10.4079H25.1506V16.5304H23.7512V16.5109ZM27.0359 12.818H30.0291C29.932 11.924 29.446 11.4769 28.552 11.4769C27.7356 11.4769 27.2303 11.924 27.0359 12.818Z" fill="#5875AA"/>
<path d="M40.0194 16.5109H38.5811L37.7064 12.0017L36.0349 16.6275H35.5101L33.8192 12.0017L32.9251 16.5109H31.4868L33.1583 8.15326H33.9552L35.7628 13.7898L37.5315 8.15326H38.309L40.0194 16.5109Z" fill="#3EB4F0"/>
<path d="M44.2568 15.9084C44.1207 16.1222 43.9069 16.2972 43.5765 16.4332C43.2461 16.5693 42.9157 16.6276 42.5658 16.6276C41.905 16.6276 41.3996 16.4526 41.0109 16.1417C40.6416 15.8112 40.4473 15.3448 40.4473 14.7422C40.4473 14.0425 40.7194 13.4789 41.2442 13.0902C41.7689 12.682 42.527 12.4876 43.4988 12.4876C43.6737 12.4876 43.8681 12.5071 44.0819 12.5654C44.0819 11.8462 43.6348 11.4769 42.7213 11.4769C42.1771 11.4769 41.7301 11.5741 41.3802 11.749L41.0692 10.6412C41.5551 10.4079 42.1382 10.2913 42.8185 10.2913C43.7514 10.2913 44.4317 10.5051 44.8593 10.9327C45.2869 11.3603 45.5007 12.1572 45.5007 13.3428V14.6451C45.5007 15.4614 45.6562 15.9667 45.9866 16.1805C45.87 16.3943 45.734 16.511 45.5979 16.5693C45.4424 16.6081 45.2869 16.647 45.0926 16.647C44.8788 16.647 44.7038 16.5693 44.5483 16.4138C44.4123 16.2388 44.3151 16.0834 44.2568 15.9084ZM44.1207 13.6344C43.8681 13.5761 43.6931 13.5566 43.5765 13.5566C42.4492 13.5566 41.8856 13.9259 41.8856 14.6645C41.8856 15.2087 42.1965 15.4808 42.8379 15.4808C43.6931 15.4808 44.1207 15.0532 44.1207 14.198V13.6344Z" fill="#3EB4F0"/>
<path fill-rule="evenodd" clip-rule="evenodd" d="M49.0572 11.5547C48.7268 11.5547 48.4353 11.6324 48.1826 11.9434C47.9299 12.2544 47.7939 12.6042 47.7939 13.0513V16.5304H46.375V10.4079H47.7939V10.9716C48.202 10.5245 48.7268 10.3691 49.3876 10.3691C49.7375 10.3691 50.029 10.3302 50.2623 10.4079H50.5344V9.164L51.9532 8.63922V10.4079H53.6248V11.5547H51.9532V14.2369C51.9532 14.6839 52.031 14.9755 52.167 15.1698C52.3031 15.3448 52.5363 15.4419 52.8862 15.4419C53.236 15.4419 53.547 15.3448 53.8386 15.1698V16.4915C53.5081 16.6081 53.0417 16.6664 52.4197 16.6664C51.8172 16.6664 51.3507 16.4915 51.0203 16.1417C50.6899 15.7918 50.5344 15.3059 50.5344 14.6645V11.5547C49.9124 11.5547 49.6986 11.5547 49.0572 11.5547Z" fill="#3EB4F0"/>
<path d="M9.60156 19.6596L9.71818 19.4264C9.75705 19.4653 9.79593 19.4847 9.85423 19.5236C9.91254 19.543 9.97085 19.5624 10.0097 19.5624C10.0875 19.5624 10.1458 19.543 10.1847 19.5041C10.2235 19.4653 10.2624 19.407 10.2624 19.3486C10.2624 19.3098 10.243 19.2903 10.2235 19.2515C10.2041 19.232 10.1458 19.1932 10.0875 19.1543L9.91254 19.0571C9.85423 19.0182 9.81536 18.9794 9.79593 18.9405C9.77649 18.9016 9.75705 18.8433 9.75705 18.785C9.75705 18.6684 9.79593 18.5712 9.89311 18.4934C9.99029 18.4157 10.1069 18.3768 10.243 18.3768C10.3401 18.3768 10.4568 18.4157 10.5928 18.474L10.4956 18.6878C10.4179 18.6101 10.3207 18.5712 10.2235 18.5712C10.1652 18.5712 10.1069 18.5906 10.068 18.6101C10.0292 18.6489 10.0097 18.6878 10.0097 18.7461C10.0097 18.785 10.0292 18.8239 10.0486 18.8433C10.068 18.8627 10.1263 18.9016 10.1847 18.9405L10.3596 19.0377C10.4179 19.0571 10.4568 19.096 10.4762 19.1543C10.4956 19.1932 10.5151 19.2515 10.5151 19.3098C10.5151 19.4458 10.4568 19.5624 10.3596 19.6402C10.2624 19.7179 10.1263 19.7568 9.97085 19.7568C9.8348 19.7568 9.69874 19.7179 9.60156 19.6596Z" fill="#C7CACC"/>
<path d="M12.0697 19.7374L12.2252 18.9016C12.2252 18.8627 12.2252 18.8433 12.2252 18.8044C12.2252 18.6489 12.1475 18.5712 11.992 18.5712C11.9337 18.5712 11.8754 18.5906 11.8171 18.6295C11.7588 18.6684 11.7005 18.7072 11.6616 18.7461L11.4867 19.7374H11.2534L11.5838 17.8521H11.8171L11.7005 18.5518C11.7393 18.4934 11.7976 18.4546 11.8754 18.4351C11.9531 18.3963 12.0309 18.3768 12.1086 18.3768C12.2252 18.3768 12.3224 18.4157 12.3807 18.474C12.439 18.5323 12.4779 18.6295 12.4779 18.7656C12.4779 18.8044 12.4779 18.8627 12.4585 18.9016L12.303 19.7374H12.0697Z" fill="#C7CACC"/>
<path d="M13.1973 19.2515C13.1973 19.0182 13.275 18.8044 13.4111 18.6295C13.5471 18.4546 13.722 18.3768 13.9358 18.3768C14.0913 18.3768 14.2274 18.4157 14.3051 18.5129C14.3829 18.6101 14.4412 18.7267 14.4412 18.8822C14.4412 19.0182 14.4218 19.1348 14.3634 19.2903C14.3051 19.4264 14.2274 19.543 14.1108 19.6402C13.9942 19.7374 13.8581 19.7762 13.7026 19.7762C13.5471 19.7762 13.4111 19.7374 13.3333 19.6402C13.2361 19.543 13.1973 19.407 13.1973 19.2515ZM13.4499 19.232C13.4499 19.4653 13.5471 19.5624 13.7415 19.5624C13.8775 19.5624 13.9942 19.4847 14.0719 19.3486C14.1496 19.2126 14.1885 19.0571 14.1885 18.8822C14.1885 18.6684 14.0913 18.5518 13.897 18.5518C13.7998 18.5518 13.722 18.5906 13.6443 18.6489C13.5666 18.7267 13.5277 18.8044 13.4888 18.9016C13.4694 19.0377 13.4499 19.1348 13.4499 19.232Z" fill="#C7CACC"/>
<path d="M15.3353 19.6791L15.2381 20.2816H15.0049L15.2576 18.8239C15.277 18.7656 15.277 18.6878 15.277 18.6295C15.277 18.5712 15.277 18.5129 15.2576 18.4546L15.4908 18.4157C15.4908 18.4351 15.5102 18.4935 15.5102 18.5906C15.5491 18.5518 15.6074 18.4935 15.6852 18.474C15.7629 18.4351 15.8212 18.4157 15.899 18.4157C16.0739 18.4157 16.1905 18.4546 16.2682 18.5323C16.346 18.6101 16.3849 18.7461 16.3849 18.9016C16.3849 19.1543 16.3071 19.3681 16.1711 19.543C16.035 19.7179 15.8406 19.7957 15.6268 19.7957C15.5685 19.7957 15.5297 19.7957 15.4519 19.7763C15.3742 19.7179 15.3353 19.6985 15.3353 19.6791ZM15.3547 19.4653C15.3742 19.4847 15.3936 19.5236 15.4519 19.5236C15.4908 19.543 15.5491 19.543 15.588 19.543C15.7629 19.543 15.899 19.4847 15.9961 19.3681C16.0933 19.2515 16.1322 19.096 16.1322 18.8822C16.1322 18.7656 16.1128 18.6878 16.0544 18.6295C15.9961 18.5712 15.9184 18.5518 15.8018 18.5518C15.7629 18.5518 15.7046 18.5712 15.6268 18.6101C15.5685 18.6489 15.5102 18.6878 15.4908 18.7073L15.3547 19.4653Z" fill="#C7CACC"/>
<path d="M17.2787 19.6791L17.1815 20.2816H16.9482L17.2009 18.8239C17.2204 18.7656 17.2204 18.6878 17.2204 18.6295C17.2204 18.5712 17.2204 18.5129 17.2009 18.4546L17.4342 18.4157C17.4342 18.4351 17.4536 18.4935 17.4536 18.5906C17.4925 18.5518 17.5508 18.4935 17.6285 18.474C17.7063 18.4351 17.7646 18.4157 17.8423 18.4157C18.0172 18.4157 18.1339 18.4546 18.2116 18.5323C18.2894 18.6101 18.3282 18.7461 18.3282 18.9016C18.3282 19.1543 18.2505 19.3681 18.1144 19.543C17.9784 19.7179 17.784 19.7957 17.5702 19.7957C17.5119 19.7957 17.473 19.7957 17.3953 19.7763C17.337 19.7179 17.2981 19.6985 17.2787 19.6791ZM17.3175 19.4653C17.337 19.4847 17.3564 19.5236 17.4147 19.5236C17.4536 19.543 17.5119 19.543 17.5508 19.543C17.7257 19.543 17.8618 19.4847 17.9589 19.3681C18.0561 19.2515 18.095 19.096 18.095 18.8822C18.095 18.7656 18.0756 18.6878 18.0172 18.6295C17.9589 18.5712 17.8812 18.5518 17.7646 18.5518C17.7257 18.5518 17.6674 18.5712 17.5896 18.6101C17.5313 18.6489 17.473 18.6878 17.4536 18.7073L17.3175 19.4653Z" fill="#C7CACC"/>
<path d="M19.4752 17.8715C19.514 17.8715 19.5529 17.8909 19.5918 17.9103C19.6306 17.9492 19.6306 17.9881 19.6306 18.027C19.6306 18.0658 19.6112 18.1047 19.5918 18.1436C19.5529 18.1824 19.514 18.1824 19.4752 18.1824C19.4363 18.1824 19.3974 18.163 19.3585 18.1436C19.3197 18.1047 19.3197 18.0658 19.3197 18.027C19.3197 17.9881 19.3391 17.9492 19.3585 17.9103C19.378 17.8909 19.4168 17.8715 19.4752 17.8715ZM19.0864 19.7373L19.2808 18.61H19.1059L19.1447 18.4157H19.5529L19.3197 19.7568H19.0864V19.7373Z" fill="#C7CACC"/>
<path d="M21.1275 19.7374L21.2635 18.96C21.2829 18.8822 21.2829 18.8239 21.2829 18.785C21.2829 18.649 21.2052 18.5712 21.0691 18.5712C21.0108 18.5712 20.9525 18.5907 20.8942 18.6295C20.8359 18.6684 20.7776 18.7073 20.7387 18.7462L20.5638 19.7374H20.3306L20.5055 18.7267C20.5055 18.7073 20.5055 18.6684 20.5055 18.649C20.5055 18.5712 20.5055 18.4935 20.4861 18.4352L20.7193 18.3963C20.7387 18.5129 20.7582 18.5907 20.7582 18.5907C20.8553 18.4546 21.0108 18.3963 21.2052 18.3963C21.4384 18.3963 21.5745 18.5129 21.5745 18.7656C21.5745 18.8239 21.5745 18.8628 21.5551 18.9211L21.419 19.7568H21.1275V19.7374Z" fill="#C7CACC"/>
<path d="M22.1377 20.1067L22.2543 19.9318C22.4098 20.0095 22.5264 20.0484 22.6236 20.0484C22.7402 20.0484 22.818 20.0289 22.8957 19.9901C22.9735 19.9512 23.0123 19.8929 23.0123 19.8151C23.0123 19.7763 22.9929 19.7568 22.9735 19.718C22.954 19.6985 22.9151 19.6791 22.8568 19.6596L22.643 19.6208C22.5459 19.6013 22.507 19.5625 22.507 19.4847C22.507 19.4264 22.5847 19.3681 22.7208 19.3098H22.6819C22.5847 19.3098 22.507 19.2709 22.4292 19.1932C22.3515 19.1154 22.3126 19.0377 22.3126 18.9211C22.3126 18.7461 22.3709 18.6101 22.4875 18.4935C22.6042 18.3768 22.7402 18.3185 22.9151 18.3185C23.0318 18.3185 23.1484 18.3574 23.2067 18.4157L23.3233 18.2797L23.4594 18.4157L23.3427 18.5518C23.3622 18.5906 23.3816 18.649 23.3816 18.7073C23.3816 18.8433 23.3427 18.9794 23.265 19.0766C23.1873 19.1737 23.0901 19.2515 22.9735 19.2904C22.8568 19.3292 22.7985 19.3681 22.7985 19.407C22.7985 19.4264 22.818 19.4458 22.8374 19.4458C22.8568 19.4458 22.8568 19.4458 22.8957 19.4458C22.9151 19.4458 22.9346 19.4458 22.954 19.4458C23.1678 19.4458 23.265 19.543 23.265 19.7374C23.265 19.8929 23.2067 20.0095 23.0706 20.0872C22.9346 20.1844 22.7791 20.2233 22.6042 20.2233C22.4098 20.2622 22.2543 20.2039 22.1377 20.1067ZM22.8763 18.5712C22.7791 18.5712 22.7013 18.6101 22.643 18.6878C22.5847 18.7656 22.5459 18.8433 22.5459 18.9599C22.5459 19.1349 22.6236 19.232 22.7597 19.232C22.8568 19.232 22.9346 19.1932 23.0123 19.096C23.0901 18.9988 23.1289 18.9016 23.1289 18.8044C23.1289 18.7461 23.1095 18.6878 23.0706 18.649C23.0123 18.5906 22.954 18.5712 22.8763 18.5712Z" fill="#C7CACC"/>
<path d="M25.8896 18.4351L25.8507 18.6295C25.7924 18.5906 25.7147 18.5518 25.6175 18.5518C25.462 18.5518 25.3454 18.6101 25.2482 18.7267C25.151 18.8433 25.1121 18.9988 25.1121 19.1737C25.1121 19.2903 25.151 19.3681 25.2093 19.4264C25.2676 19.4847 25.3454 19.5236 25.4231 19.5236C25.5397 19.5236 25.6564 19.4847 25.773 19.407L25.7535 19.6402C25.6369 19.6791 25.5203 19.7179 25.4037 19.7179C25.2482 19.7179 25.1121 19.6791 25.015 19.5819C24.9178 19.4847 24.8789 19.3681 24.8789 19.2126C24.8789 18.9599 24.9567 18.7461 25.0927 18.5906C25.2288 18.4351 25.4037 18.338 25.6175 18.338C25.7147 18.3768 25.8313 18.3963 25.8896 18.4351Z" fill="#C7CACC"/>
<path d="M27.7552 18.4934L27.5997 19.2709C27.5997 19.3098 27.5802 19.3486 27.5802 19.3875C27.5802 19.5236 27.5997 19.6402 27.6385 19.7568H27.4053C27.3859 19.7374 27.3859 19.679 27.3664 19.6207C27.3276 19.6596 27.2692 19.6985 27.1915 19.7374C27.1138 19.7762 27.036 19.7762 26.9388 19.7762C26.8028 19.7762 26.7056 19.7374 26.6278 19.6596C26.5501 19.5819 26.5112 19.4652 26.5112 19.3292C26.5112 19.0765 26.589 18.8627 26.725 18.6878C26.8611 18.4934 27.0554 18.3962 27.2887 18.3962C27.5025 18.3768 27.658 18.4157 27.7552 18.4934ZM27.5025 18.6295C27.483 18.5906 27.4053 18.5712 27.2692 18.5712C27.1332 18.5712 27.0166 18.6489 26.9194 18.785C26.8222 18.921 26.7639 19.096 26.7639 19.3098C26.7639 19.4847 26.8416 19.5819 26.9971 19.5819C27.0749 19.5819 27.1526 19.543 27.2304 19.4458C27.3081 19.3681 27.347 19.2514 27.3859 19.1154L27.5025 18.6295Z" fill="#C7CACC"/>
<path d="M29.3491 18.6295C29.2907 18.5906 29.2324 18.5712 29.1741 18.5712C29.0964 18.5712 29.0186 18.61 28.9409 18.6878C28.8631 18.7655 28.8243 18.8627 28.8048 18.9599L28.6688 19.7179H28.4355L28.6688 18.3768H28.902L28.8631 18.5906C28.9798 18.4351 29.1158 18.3574 29.2907 18.3574C29.3296 18.3574 29.3685 18.3574 29.4268 18.3768L29.3491 18.6295Z" fill="#C7CACC"/>
<path d="M30.3205 18.5906H30.165L30.2039 18.3963H30.3594L30.4177 18.1242L30.6898 18.027L30.5926 18.4157H30.9619L30.9231 18.6101H30.5538L30.4177 19.2709C30.3983 19.3292 30.3983 19.3681 30.3983 19.3875C30.3983 19.5236 30.4566 19.5819 30.5926 19.5819C30.6509 19.5819 30.7287 19.5624 30.787 19.543V19.7568C30.7093 19.7762 30.6121 19.7957 30.4566 19.7957C30.3594 19.7957 30.2817 19.7568 30.2428 19.6985C30.1845 19.6402 30.165 19.5624 30.165 19.4653C30.165 19.4458 30.165 19.407 30.1845 19.3875L30.3205 18.5906Z" fill="#C7CACC"/>
<path d="M32.3032 19.6596L32.4198 19.4264C32.4587 19.4653 32.4976 19.4847 32.5559 19.5236C32.6142 19.543 32.6725 19.5624 32.7114 19.5624C32.7891 19.5624 32.8474 19.543 32.8863 19.5041C32.9252 19.4653 32.9641 19.407 32.9641 19.3486C32.9641 19.3098 32.9446 19.2903 32.9252 19.2515C32.9057 19.232 32.8474 19.1932 32.7891 19.1543L32.6142 19.0571C32.5559 19.0182 32.517 18.9794 32.4976 18.9405C32.4781 18.9016 32.4587 18.8433 32.4587 18.785C32.4587 18.6684 32.4976 18.5712 32.5948 18.4934C32.6919 18.4157 32.8086 18.3768 32.9446 18.3768C33.0418 18.3768 33.1584 18.4157 33.2945 18.474L33.1973 18.6878C33.1196 18.6101 33.0224 18.5712 32.9252 18.5712C32.8669 18.5712 32.8086 18.5906 32.7697 18.6101C32.7308 18.6489 32.7114 18.6878 32.7114 18.7461C32.7114 18.785 32.7308 18.8239 32.7503 18.8433C32.7697 18.8627 32.828 18.9016 32.8863 18.9405L33.0612 19.0377C33.1196 19.0571 33.1584 19.096 33.1779 19.1543C33.1973 19.1932 33.2167 19.2515 33.2167 19.3098C33.2167 19.4458 33.1584 19.5624 33.0612 19.6402C32.9641 19.7179 32.828 19.7568 32.6725 19.7568C32.5365 19.7568 32.4004 19.7179 32.3032 19.6596Z" fill="#C7CACC"/>
<path d="M33.9355 19.2515C33.9355 19.0182 34.0133 18.8044 34.1493 18.6295C34.2854 18.4546 34.4603 18.3768 34.6741 18.3768C34.8296 18.3768 34.9657 18.4157 35.0434 18.5129C35.1212 18.6101 35.1795 18.7267 35.1795 18.8822C35.1795 19.0182 35.16 19.1348 35.1017 19.2903C35.0434 19.4264 34.9657 19.543 34.8491 19.6402C34.7324 19.7374 34.5964 19.7762 34.4409 19.7762C34.2854 19.7762 34.1493 19.7374 34.0716 19.6402C33.9744 19.543 33.9355 19.407 33.9355 19.2515ZM34.1882 19.232C34.1882 19.4653 34.2854 19.5624 34.4798 19.5624C34.6158 19.5624 34.7324 19.4847 34.8102 19.3486C34.8879 19.2126 34.9268 19.0571 34.9268 18.8822C34.9268 18.6684 34.8296 18.5518 34.6353 18.5518C34.5381 18.5518 34.4603 18.5906 34.3826 18.6489C34.3048 18.7267 34.266 18.8044 34.2271 18.9016C34.2077 19.0377 34.1882 19.1348 34.1882 19.232Z" fill="#C7CACC"/>
<path d="M36.8707 18.0658C36.8124 18.0464 36.7541 18.027 36.7152 18.027C36.5597 18.027 36.4625 18.1436 36.4236 18.3962H36.7346L36.7152 18.5517H36.4042L36.1904 19.8151C36.171 19.9317 36.1127 20.0289 36.0349 20.1066C35.9377 20.1844 35.8405 20.2233 35.7045 20.2427L35.6851 20.1066C35.7434 20.0872 35.7822 20.0678 35.8405 20.0095C35.8989 19.9511 35.9183 19.8928 35.9377 19.8345L36.1515 18.5712H35.9572L35.9766 18.4157H36.1515C36.2293 18.0464 36.4042 17.8715 36.6957 17.8715C36.7735 17.8715 36.8318 17.8909 36.8707 17.9103V18.0658Z" fill="#C7CACC"/>
<path d="M37.7063 18.5906H37.5508L37.5897 18.3963H37.7451L37.8035 18.1242L38.0756 18.027L37.9784 18.4157H38.3477L38.3088 18.6101H37.9395L37.8035 19.2709C37.784 19.3292 37.784 19.3681 37.784 19.3875C37.784 19.5236 37.8423 19.5819 37.9784 19.5819C38.0367 19.5819 38.1144 19.5624 38.1727 19.543V19.7568C38.095 19.7762 37.9978 19.7957 37.8423 19.7957C37.7451 19.7957 37.6674 19.7568 37.6285 19.6985C37.5702 19.6402 37.5508 19.5624 37.5508 19.4653C37.5508 19.4458 37.5508 19.407 37.5702 19.3875L37.7063 18.5906Z" fill="#C7CACC"/>
<path d="M40.2141 19.7568H40.1558L39.9031 18.8822L39.3784 19.7568H39.3201L39.0674 18.3963H39.3006L39.4561 19.2515L39.9615 18.3963H40.0198L40.253 19.2515L40.6806 18.3963H40.9333C40.6223 18.9405 40.3891 19.407 40.2141 19.7568Z" fill="#C7CACC"/>
<path d="M42.6629 18.4934L42.5074 19.2709C42.5074 19.3098 42.4879 19.3486 42.4879 19.3875C42.4879 19.5236 42.5074 19.6402 42.5463 19.7568H42.313C42.2936 19.7374 42.2936 19.679 42.2741 19.6207C42.2353 19.6596 42.177 19.6985 42.0992 19.7374C42.0215 19.7762 41.9437 19.7762 41.8465 19.7762C41.7105 19.7762 41.6133 19.7374 41.5356 19.6596C41.4578 19.5819 41.4189 19.4652 41.4189 19.3292C41.4189 19.0765 41.4967 18.8627 41.6327 18.6878C41.7688 18.4934 41.9632 18.3962 42.1964 18.3962C42.4102 18.3768 42.5657 18.4157 42.6629 18.4934ZM42.3908 18.6295C42.3713 18.5906 42.2936 18.5712 42.1575 18.5712C42.0215 18.5712 41.9049 18.6489 41.8077 18.785C41.7105 18.921 41.6522 19.096 41.6522 19.3098C41.6522 19.4847 41.7299 19.5819 41.8854 19.5819C41.9632 19.5819 42.0409 19.543 42.1187 19.4458C42.1964 19.3681 42.2353 19.2514 42.2741 19.1154L42.3908 18.6295Z" fill="#C7CACC"/>
<path d="M44.2568 18.6295C44.1985 18.5906 44.1402 18.5712 44.0818 18.5712C44.0041 18.5712 43.9264 18.61 43.8486 18.6878C43.7709 18.7655 43.732 18.8627 43.7126 18.9599L43.5765 19.7179H43.3433L43.5765 18.3768H43.8097L43.7709 18.5906C43.8875 18.4351 44.0235 18.3574 44.1985 18.3574C44.2373 18.3574 44.2762 18.3574 44.3345 18.3768L44.2568 18.6295Z" fill="#C7CACC"/>
<path d="M45.1896 19.1154C45.1896 19.1543 45.1702 19.1931 45.1702 19.232C45.1702 19.3486 45.209 19.4264 45.2673 19.4847C45.3256 19.543 45.4228 19.5819 45.52 19.5819C45.6172 19.5819 45.7144 19.543 45.8116 19.4652L45.7921 19.6985C45.6561 19.7373 45.5394 19.7568 45.4423 19.7568C45.0924 19.7568 44.9175 19.5624 44.9175 19.1737C44.9175 18.9405 44.9952 18.7461 45.1313 18.5906C45.2673 18.4351 45.4617 18.3574 45.6755 18.3574C45.8116 18.3574 45.9087 18.3768 45.9865 18.4351C46.0642 18.4934 46.1031 18.5712 46.1031 18.6683C46.1031 18.8044 46.0448 18.921 45.9282 19.0182C45.8116 19.0959 45.6561 19.1348 45.4811 19.1348C45.384 19.1737 45.2868 19.1543 45.1896 19.1154ZM45.2479 18.9405C45.3062 18.9599 45.384 18.9793 45.4617 18.9793C45.5978 18.9793 45.6949 18.9599 45.7727 18.921C45.8504 18.8821 45.8893 18.8238 45.8893 18.7461C45.8893 18.6489 45.8116 18.5906 45.6755 18.5906C45.4811 18.5712 45.3256 18.6878 45.2479 18.9405Z" fill="#C7CACC"/>
</svg>
