<svg width="99" height="20" viewBox="0 0 99 20" fill="none" xmlns="http://www.w3.org/2000/svg">
<g clip-path="url(#clip0)">
<path fill-rule="evenodd" clip-rule="evenodd" d="M30.1818 0H3.08904C1.37447 0 -0.0135084 1.40158 9.92082e-05 3.10254V13.4443C9.92082e-05 15.1589 1.38808 16.5469 3.10264 16.5469H15.9346L21.7996 19.8127L20.466 16.5469H30.1818C31.8964 16.5469 33.2844 15.1589 33.2844 13.4443V3.10254C33.2844 1.38797 31.8964 0 30.1818 0ZM2.51757 2.39494C2.13656 2.42216 1.85079 2.55823 1.66029 2.81677C1.46978 3.06171 1.40175 3.37469 1.44257 3.72849C2.24542 8.83139 2.99384 12.2741 3.68783 14.0567C3.95998 14.7098 4.27296 15.0229 4.64037 14.9957C5.21188 14.9548 5.89226 14.1656 6.69511 12.6279C7.11695 11.757 7.77012 10.4507 8.65462 8.70887C9.38939 11.2807 10.3963 13.213 11.6619 14.5057C12.0157 14.8731 12.3831 15.0364 12.7369 15.0092C13.0499 14.982 13.2948 14.8187 13.4581 14.5193C13.5942 14.2608 13.6486 13.9614 13.6214 13.6212C13.5397 12.383 13.6623 10.6548 14.0024 8.43673C14.3562 6.15065 14.7917 4.50412 15.3224 3.52437C15.4312 3.32026 15.472 3.11614 15.4584 2.87121C15.4312 2.55823 15.2951 2.29969 15.0366 2.09557C14.7781 1.89146 14.4923 1.79621 14.1793 1.82342C13.7847 1.85063 13.4853 2.04114 13.2812 2.42216C12.4376 3.95982 11.8388 6.45002 11.485 9.90635C10.9679 8.60003 10.5324 7.06236 10.1923 5.25254C10.0426 4.4497 9.67522 4.06868 9.07644 4.1095C8.66822 4.13671 8.32804 4.40887 8.05588 4.92596L5.07581 10.6003C4.58593 8.62723 4.12327 6.21869 3.70144 3.37469C3.60618 2.6671 3.21156 2.3405 2.51757 2.39494ZM28.7395 3.37473C29.7057 3.57885 30.4269 4.09594 30.9167 4.95322C31.3522 5.68803 31.5698 6.57253 31.5698 7.63392C31.5698 9.03548 31.2161 10.3146 30.5084 11.4849C29.692 12.8457 28.6306 13.526 27.3107 13.526C27.0794 13.526 26.8344 13.4988 26.5758 13.4443C25.6097 13.2403 24.8885 12.7232 24.3986 11.8659C23.9632 11.1175 23.7455 10.2194 23.7455 9.17157C23.7455 7.77 24.0993 6.49088 24.8069 5.33423C25.637 3.97347 26.6983 3.29309 28.0047 3.29309C28.236 3.29309 28.481 3.3203 28.7395 3.37473ZM28.168 10.7364C28.6715 10.2874 29.0117 9.62061 29.2022 8.72252C29.2566 8.40956 29.2974 8.06936 29.2974 7.71557C29.2974 7.32095 29.2157 6.89911 29.0524 6.47727C28.8484 5.94657 28.5762 5.66082 28.2496 5.59277C27.7597 5.49752 27.2835 5.76968 26.8344 6.43645C26.467 6.95354 26.2357 7.49784 26.1132 8.05576C26.0451 8.36874 26.0179 8.70896 26.0179 9.04913C26.0179 9.44374 26.0996 9.86556 26.2629 10.2874C26.467 10.8181 26.7391 11.1038 27.0657 11.1719C27.4059 11.2399 27.7733 11.0903 28.168 10.7364ZM22.3847 4.95322C21.8948 4.09594 21.16 3.57885 20.2075 3.37473C19.9489 3.3203 19.704 3.29309 19.4726 3.29309C18.1663 3.29309 17.105 3.97347 16.2749 5.33423C15.5672 6.49088 15.2135 7.77 15.2135 9.17157C15.2135 10.2194 15.4312 11.1175 15.8666 11.8659C16.3565 12.7232 17.0777 13.2403 18.0438 13.4443C18.3024 13.4988 18.5473 13.526 18.7787 13.526C20.0986 13.526 21.16 12.8457 21.9764 11.4849C22.6841 10.3146 23.0378 9.03548 23.0378 7.63392C23.0378 6.57253 22.8201 5.68803 22.3847 4.95322ZM20.6701 8.72252C20.4797 9.62061 20.1394 10.2874 19.6359 10.7364C19.2413 11.0903 18.8739 11.2399 18.5337 11.1719C18.2071 11.1038 17.935 10.8181 17.7309 10.2874C17.5676 9.86556 17.4859 9.44374 17.4859 9.04913C17.4859 8.70896 17.5131 8.36874 17.5812 8.05576C17.7037 7.49784 17.935 6.95354 18.3024 6.43645C18.7515 5.76968 19.2277 5.49752 19.7176 5.59277C20.0442 5.66082 20.3163 5.94657 20.5204 6.47727C20.6837 6.89911 20.7654 7.32095 20.7654 7.71557C20.7654 8.06936 20.7382 8.40956 20.6701 8.72252Z" fill="#7F54B3"/>
<path d="M36.727 4.83069C35.8153 5.72879 35.3662 6.87182 35.3662 8.25981C35.3662 9.74305 35.8153 10.9541 36.7134 11.8658C37.6115 12.7776 38.7818 13.2402 40.2378 13.2402C40.6596 13.2402 41.1359 13.1722 41.653 13.0224V10.818C41.1767 10.9541 40.7685 11.0222 40.4146 11.0222C39.6934 11.0222 39.122 10.7772 38.6865 10.301C38.2511 9.81105 38.0333 9.15792 38.0333 8.32784C38.0333 7.55221 38.2511 6.91265 38.6729 6.42277C39.1083 5.91929 39.639 5.67436 40.2922 5.67436C40.714 5.67436 41.1631 5.74239 41.653 5.87847V3.67403C41.204 3.55156 40.7005 3.49713 40.1697 3.49713C38.7818 3.48352 37.6387 3.93258 36.727 4.83069ZM46.1707 3.48352C44.9188 3.48352 43.9391 3.90536 43.2314 4.73542C42.5239 5.56549 42.1837 6.73576 42.1837 8.23259C42.1837 9.85192 42.5374 11.0902 43.2314 11.9475C43.9254 12.8048 44.946 13.2402 46.2796 13.2402C47.5723 13.2402 48.5656 12.8048 49.2596 11.9475C49.9536 11.0902 50.3074 9.87914 50.3074 8.32784C50.3074 6.77657 49.9536 5.5791 49.246 4.73542C48.5248 3.90536 47.5042 3.48352 46.1707 3.48352ZM47.2457 10.5595C47.0007 10.9405 46.6333 11.1311 46.1707 11.1311C45.7353 11.1311 45.4086 10.9405 45.1773 10.5595C44.946 10.1784 44.8372 9.41644 44.8372 8.25981C44.8372 6.47721 45.2862 5.5927 46.198 5.5927C47.1505 5.5927 47.6403 6.49082 47.6403 8.30063C47.6267 9.41644 47.4906 10.1784 47.2457 10.5595ZM57.0296 3.74207L56.5397 5.82404C56.4173 6.35474 56.2948 6.89904 56.186 7.45695L55.9138 8.8994C55.6553 7.45695 55.3014 5.74239 54.8524 3.74207H51.6954L50.5115 13.0089H52.8793L53.5188 6.62689L55.1381 13.0089H56.8255L58.3767 6.64049L59.0435 13.0089H61.5201L60.2682 3.74207H57.0296ZM68.3647 3.74207L67.8749 5.82404C67.7524 6.35474 67.63 6.89904 67.5211 7.45695L67.2489 8.8994C66.9904 7.45695 66.6366 5.74239 66.1875 3.74207H63.0306L61.8467 13.0089H64.2144L64.854 6.62689L66.4733 13.0089H68.1607L69.6983 6.64049L70.3651 13.0089H72.8417L71.5898 3.74207H68.3647ZM76.0667 9.34844H78.2847V7.42974H76.0667V5.72878H78.6249V3.75568H73.5629V13.0224H78.6386V11.0494H76.0667V9.34844ZM85.6873 7.87879C85.9459 7.45696 86.0819 7.02151 86.0819 6.57246C86.0819 5.70157 85.7417 5.00758 85.0613 4.50409C84.3809 4.00062 83.442 3.74207 82.2718 3.74207H79.3597V13.0089H81.8635V8.79053H81.9044L83.9319 13.0089H86.5718L84.5714 8.83131C85.0477 8.61361 85.4287 8.30062 85.6873 7.87879ZM81.85 7.7291V5.52467C82.4487 5.53828 82.8705 5.63353 83.1291 5.82404C83.3876 6.01455 83.51 6.31391 83.51 6.74936C83.51 7.38891 82.9521 7.7155 81.85 7.7291ZM87.5512 4.83069C86.6398 5.72879 86.1907 6.87182 86.1907 8.25981C86.1907 9.74305 86.6398 10.9541 87.5381 11.8658C88.4364 12.7776 89.606 13.2402 91.0625 13.2402C91.4842 13.2402 91.9607 13.1722 92.4773 13.0224V10.818C92.0016 10.9541 91.5929 11.0222 91.239 11.0222C90.5181 11.0222 89.9468 10.7772 89.5112 10.301C89.0755 9.81105 88.8581 9.15792 88.8581 8.32784C88.8581 7.55221 89.0755 6.91265 89.4973 6.42277C89.9329 5.91929 90.4633 5.67436 91.1164 5.67436C91.5381 5.67436 91.9877 5.74239 92.4773 5.87847V3.67403C92.0286 3.55156 91.5251 3.49713 90.9947 3.49713C89.6199 3.48352 88.4633 3.93258 87.5512 4.83069ZM95.6755 11.0222V9.33479H97.8929V7.41613H95.6755V5.71518H98.2468V3.74207H93.1851V13.0089H98.2607V11.0357H95.6755V11.0222Z" fill="black"/>
</g>
<defs>
<clipPath id="clip0">
<rect width="98.2609" height="20" fill="white"/>
</clipPath>
</defs>
</svg>
