<svg width="37" height="37" viewBox="0 0 37 37" fill="none" xmlns="http://www.w3.org/2000/svg">
<path fill-rule="evenodd" clip-rule="evenodd" d="M18.3953 18.3947L36.1626 13.6334C35.739 12.0529 35.1055 10.5325 34.2766 9.11394L18.3951 18.3947L18.3953 18.3947ZM18.395 18.3947L31.3375 5.3237C29.5077 3.51189 27.3094 2.09623 24.8786 1.18064C21.4972 -0.0930105 17.8156 -0.342576 14.2932 0.463091C10.7709 1.26876 7.5638 3.09398 5.07229 5.71094C4.04031 6.79489 3.15002 7.99479 2.41619 9.28143L18.3943 18.3948L0.603432 13.7218C0.477431 14.2016 0.370568 14.6874 0.283388 15.1784C0.0882874 16.277 -0.00556362 17.3858 0.000254699 18.4914L18.3943 18.3948L0.650508 23.2433C0.880161 24.0838 1.17014 24.9101 1.51966 25.7158C1.81243 26.3906 2.14434 27.0448 2.51289 27.6755L18.3943 18.3948L5.45194 31.4657C6.33768 32.3428 7.3145 33.1317 8.36984 33.8177C8.66878 34.012 8.97272 34.1972 9.28122 34.3731L18.3947 18.3948L13.7217 36.186C15.2907 36.5981 16.9156 36.803 18.555 36.7887L18.3947 18.3948L18.3947 18.3947L5.32369 5.45218C6.4534 4.31124 7.72764 3.32313 9.1139 2.51303L18.3948 18.3947H18.3948L13.5462 0.650629C15.095 0.227409 16.6926 0.00879558 18.2982 0.000361302L18.3948 18.3947H18.3948L23.0679 0.603573C24.6208 1.01147 26.1137 1.62093 27.5084 2.41642L18.3949 18.3947L18.395 18.3947Z" fill="#FF5B22"/>
<path d="M23.0962 29.8293C23.0167 29.8293 22.9491 29.8015 22.8934 29.7458C22.8377 29.6901 22.8099 29.6225 22.8099 29.543V28.9225C22.8099 28.6998 22.9093 28.5129 23.1082 28.3617L24.9695 26.5123C25.5343 26.0669 25.9678 25.7049 26.2701 25.4265C26.5803 25.1402 26.811 24.8777 26.9621 24.639C27.1132 24.4004 27.1888 24.1657 27.1888 23.9351C27.1888 23.5612 27.0894 23.2669 26.8905 23.0521C26.6917 22.8373 26.3894 22.73 25.9837 22.73C25.586 22.73 25.2718 22.8493 25.0411 23.0879C24.8184 23.3186 24.6792 23.6209 24.6235 23.9947C24.5996 24.0902 24.5519 24.1618 24.4803 24.2095C24.4167 24.2493 24.3451 24.2692 24.2655 24.2692H23.1917C23.1201 24.2692 23.0604 24.2453 23.0127 24.1976C22.965 24.1498 22.9411 24.0902 22.9411 24.0186C22.957 23.5493 23.0843 23.1118 23.3229 22.7061C23.5695 22.2925 23.9195 21.9624 24.3729 21.7158C24.8263 21.4612 25.3593 21.334 25.9718 21.334C26.6081 21.334 27.149 21.4453 27.5945 21.668C28.0399 21.8828 28.374 22.1811 28.5968 22.5629C28.8195 22.9447 28.9308 23.3783 28.9308 23.8635C28.9308 24.3964 28.7797 24.8816 28.4774 25.3191C28.1831 25.7487 27.7218 26.21 27.0934 26.7032L25.4349 28.3856H28.8115C28.899 28.3856 28.9706 28.4134 29.0263 28.4691C29.082 28.5248 29.1098 28.5964 29.1098 28.6839V29.543C29.1098 29.6305 29.082 29.7021 29.0263 29.7577C28.9706 29.8055 28.899 29.8293 28.8115 29.8293H23.0962Z" fill="#FF5B22"/>
<path d="M34.3035 29.8293C34.2239 29.8293 34.1563 29.8015 34.1006 29.7458C34.0449 29.6901 34.0171 29.6225 34.0171 29.543V28.0157H30.2348C30.1552 28.0157 30.0876 27.9879 30.0319 27.9322C29.9762 27.8765 29.9484 27.8089 29.9484 27.7294V26.9061C29.9484 26.7788 29.9921 26.6595 30.0796 26.5481L33.5995 21.68C33.6393 21.6163 33.6989 21.5686 33.7785 21.5368C33.858 21.497 33.9455 21.4771 34.041 21.4771H35.3535C35.441 21.4771 35.5086 21.505 35.5563 21.5607C35.612 21.6084 35.6398 21.676 35.6398 21.7635V26.5958H36.7137C36.8012 26.5958 36.8688 26.6237 36.9165 26.6794C36.9722 26.7271 37 26.7947 37 26.8822V27.7294C37 27.8089 36.9722 27.8765 36.9165 27.9322C36.8688 27.9879 36.8012 28.0157 36.7137 28.0157H35.6398V29.543C35.6398 29.6225 35.612 29.6901 35.5563 29.7458C35.5086 29.8015 35.441 29.8293 35.3535 29.8293H34.3035ZM31.6308 26.6436H34.0529V23.2192L31.6308 26.6436Z" fill="#FF5B22"/>
</svg>
