<svg width="37" height="29" viewBox="0 0 37 29" fill="none" xmlns="http://www.w3.org/2000/svg">
<path d="M8.04275 0.129547C12.3441 0.129547 15.831 3.61646 15.831 7.91778C15.831 12.2191 12.3441 15.706 8.04275 15.706C6.82652 15.706 5.6754 15.4272 4.64981 14.9301L2.27579 16.3007C1.78246 16.5855 1.16579 16.2295 1.16579 15.6599L1.16579 11.622C1.16579 11.6075 1.16619 11.5932 1.16698 11.579C0.584618 10.4876 0.254517 9.24122 0.254517 7.91778C0.254517 3.61646 3.74143 0.129547 8.04275 0.129547Z" fill="#FF5B22"/>
<path d="M25.5894 5.83551C19.6388 5.83551 14.8148 10.6595 14.8148 16.6101C14.8148 22.5608 19.6388 27.3847 25.5894 27.3847C27.2719 27.3847 28.8644 26.9991 30.2831 26.3114L33.9929 28.4532C34.4863 28.7381 35.1029 28.382 35.1029 27.8124V21.6729C35.9078 20.1635 36.3641 18.4401 36.3641 16.6101C36.3641 10.6595 31.5401 5.83551 25.5894 5.83551Z" fill="#FF5B22"/>
</svg>
