<svg width="38" height="37" viewBox="0 0 38 37" fill="none" xmlns="http://www.w3.org/2000/svg">
<path fill-rule="evenodd" clip-rule="evenodd" d="M8.54655 11.9258C8.54655 6.15675 13.2233 1.48001 18.9923 1.48001C24.7614 1.48001 29.4381 6.15675 29.4381 11.9258C29.4381 13.0125 29.2722 14.0605 28.9642 15.0458C28.2013 14.8684 27.4063 14.7747 26.5894 14.7747C23.3379 14.7747 20.4334 16.2603 18.5176 18.5897C16.6018 16.2603 13.6973 14.7747 10.4458 14.7747C9.9447 14.7747 9.45186 14.8099 8.96961 14.8782C8.69428 13.942 8.54655 12.9511 8.54655 11.9258ZM16.6175 22.1004C12.9502 21.2479 10.0241 18.4636 8.96961 14.8782C3.8996 15.5953 0 19.9525 0 25.2204C0 30.9895 4.67674 35.6662 10.4458 35.6662C13.6973 35.6662 16.6018 34.1806 18.5176 31.8512C20.4334 34.1806 23.3379 35.6662 26.5894 35.6662C32.3585 35.6662 37.0352 30.9895 37.0352 25.2204C37.0352 20.2683 33.5891 16.121 28.9642 15.0458C27.7794 18.8366 24.4926 21.6989 20.4685 22.2681C20.0678 20.9056 19.3968 19.6588 18.5176 18.5897C17.6746 19.6148 17.023 20.8033 16.6175 22.1004ZM16.6175 22.1004C17.3805 22.2778 18.1754 22.3716 18.9923 22.3716C19.4934 22.3716 19.9863 22.3363 20.4685 22.2681C20.7438 23.2043 20.8916 24.1951 20.8916 25.2204C20.8916 27.738 20.001 30.0475 18.5176 31.8512C17.0342 30.0475 16.1436 27.738 16.1436 25.2204C16.1436 24.1337 16.3096 23.0857 16.6175 22.1004Z" fill="#FF5B22"/>
</svg>
