<svg width="37" height="37" viewBox="0 0 37 37" fill="none" xmlns="http://www.w3.org/2000/svg">
<ellipse cx="5.81429" cy="5.89855" rx="5.81429" ry="5.89855" fill="#FF5B22"/>
<ellipse cx="18.5002" cy="18.2319" rx="5.81429" ry="5.89855" fill="#FF5B22"/>
<ellipse cx="31.1856" cy="31.1014" rx="5.81429" ry="5.89855" fill="#FF5B22"/>
<path d="M5.81409 5.69477C5.81409 5.28608 6.1454 4.95477 6.55409 4.95477H30.4455C30.8542 4.95477 31.1855 5.28608 31.1855 5.69477C31.1855 6.10346 30.8542 6.43477 30.4455 6.43477H6.55409C6.1454 6.43477 5.81409 6.10346 5.81409 5.69477Z" fill="#FF5B22"/>
<path d="M5.81409 18.0281C5.81409 17.6194 6.1454 17.2881 6.55409 17.2881H30.4455C30.8542 17.2881 31.1855 17.6194 31.1855 18.0281C31.1855 18.4368 30.8542 18.7681 30.4455 18.7681H6.55409C6.1454 18.7681 5.81409 18.4368 5.81409 18.0281Z" fill="#FF5B22"/>
<path d="M6.55409 29.6214C6.1454 29.6214 5.81409 29.9528 5.81409 30.3614C5.81409 30.7701 6.1454 31.1014 6.55409 31.1014H30.4455C30.8542 31.1014 31.1855 30.7701 31.1855 30.3614C31.1855 29.9528 30.8542 29.6214 30.4455 29.6214H6.55409Z" fill="#FF5B22"/>
</svg>
